<svg width="200" height="200" viewBox="0 0 200 200" fill="none" xmlns="http://www.w3.org/2000/svg">
<path fill-rule="evenodd" clip-rule="evenodd" d="M100.741 27.288C169.612 27.288 142.77 141.418 100.741 141.418C61.0454 141.418 31.8706 27.288 100.741 27.288Z" fill="#FFE8BE"/>
<path d="M100 200C155.228 200 200 155.228 200 100C200 44.7715 155.228 0 100 0C44.7715 0 0 44.7715 0 100C0 155.228 44.7715 200 100 200Z" fill="#58B0E0"/>
<path fill-rule="evenodd" clip-rule="evenodd" d="M147.207 64.6828L52.796 65.2492C52.796 65.2492 56.1876 117.508 44.3203 133.89H159.858C156.88 129.521 149.006 128.113 147.207 64.6828Z" fill="#60350A"/>
<path fill-rule="evenodd" clip-rule="evenodd" d="M58.6895 147.57L82.0098 137.256L119.388 136.285L143.401 148.896L126.065 185.191L101.427 198.421L75.9419 184.343L58.6895 147.57Z" fill="#D5E1ED"/>
<path fill-rule="evenodd" clip-rule="evenodd" d="M80.0776 125.178L121.926 125.45V154.411L80.0776 154.136V125.178Z" fill="#F9DCA4"/>
<path opacity="0.11" fill-rule="evenodd" clip-rule="evenodd" d="M121.932 125.495V137.081C121.977 138.405 121.934 139.73 121.803 141.049C121.608 142.51 121.268 143.949 120.79 145.343C106.647 158.822 83.9644 147.867 80.3689 124.848L121.932 125.495Z" fill="black"/>
<path fill-rule="evenodd" clip-rule="evenodd" d="M170.864 170.553C161.495 179.965 150.344 187.416 138.063 192.472C125.783 197.527 112.618 200.085 99.3382 199.997C86.0581 199.908 72.9287 197.175 60.7164 191.957C48.5041 186.739 37.4537 179.141 28.2102 169.605L32.1617 159.579L61.6212 146.24C72.1778 165.592 83.66 183.534 101.482 196.256C117.615 182.827 130.683 166.098 139.806 147.194L166.162 159.663L170.864 170.553Z" fill="#434955"/>
<path fill-rule="evenodd" clip-rule="evenodd" d="M61.8447 78.2622C52.2719 82.4369 60.4143 102.243 66.4402 102.155C63.9397 94.4082 62.3964 86.3842 61.8447 78.2622ZM140.799 78.2589C150.379 82.4401 142.233 102.243 136.207 102.155C138.707 94.4071 140.249 86.3819 140.799 78.2589Z" fill="#F9DCA4"/>
<path fill-rule="evenodd" clip-rule="evenodd" d="M100.693 28.0453C128.919 28.0453 140.748 48.1101 141.473 71.3043C142.466 103.052 123.107 140.657 100.696 140.657C79.4661 140.657 59.5761 101.764 60.7832 69.6926C61.6247 47.191 73.1263 28.0453 100.693 28.0453Z" fill="#FFE8BE"/>
<path fill-rule="evenodd" clip-rule="evenodd" d="M108.087 80.8511C113.144 77.762 119.153 76.6197 124.99 77.6375H125.006C141.686 79.6763 141.945 84.8608 140.324 86.055C139.238 86.9518 138.37 88.0825 137.783 89.3624C137.421 92.7414 136.253 95.9842 134.379 98.8187C133.13 100.774 131.489 102.449 129.559 103.737C127.63 105.025 125.453 105.898 123.168 106.301C122.625 106.388 122.068 106.456 121.498 106.489C119.272 106.648 117.039 106.275 114.985 105.401C112.931 104.526 111.114 103.175 109.686 101.46C107.62 99.0343 106.001 96.2622 104.903 93.2718V93.2815C104.903 93.2815 102.324 87.987 98.1974 92.9126C97.0891 96.0351 95.4223 98.9301 93.2783 101.456C91.8497 103.173 90.0329 104.524 87.9783 105.399C85.9237 106.274 83.6903 106.648 81.4628 106.489C80.9034 106.454 80.3461 106.391 79.7929 106.301C77.508 105.898 75.3317 105.025 73.402 103.737C71.4722 102.449 69.8311 100.774 68.5825 98.8187C66.7085 95.9851 65.5411 92.7435 65.178 89.3657C64.6194 88.0814 63.7656 86.9471 62.6861 86.055C61.068 84.8576 61.3107 79.6699 77.9903 77.631H77.9968C83.8588 76.6184 89.889 77.7807 94.9547 80.8996L94.9515 80.8964L94.9612 80.9029L95.657 81.3268C97.5969 82.3187 99.7592 82.7956 101.936 82.7117C104.114 82.6278 106.233 81.986 108.091 80.8479L108.087 80.8511ZM92.9676 82.9158C89.96 81.1787 86.576 80.1968 83.1056 80.0542C79.6353 79.9116 76.1821 80.6126 73.0421 82.0971C68.1521 84.3171 66.6602 85.8835 68.5566 92.3333C69.0704 94.0927 69.8472 95.7642 70.8608 97.2912C72.0048 99.1526 73.5801 100.711 75.4537 101.835C77.3273 102.959 79.4439 103.615 81.6246 103.748C83.4364 103.872 85.2519 103.564 86.921 102.848C88.59 102.132 90.0648 101.03 91.2233 99.631C93.1419 97.3614 94.6331 94.7628 95.6246 91.9611C97.822 86.2006 98.4142 85.932 92.9709 82.9158H92.9676ZM128.395 81.4595C125.29 80.2932 121.96 79.8517 118.659 80.1686C115.358 80.4855 112.172 81.5524 109.346 83.288C104.369 86.2362 105.275 86.7281 107.476 92.3171C108.455 94.9864 109.896 97.4622 111.735 99.631C112.893 101.03 114.369 102.133 116.038 102.849C117.708 103.565 119.524 103.873 121.337 103.748C121.803 103.72 122.267 103.668 122.728 103.592C124.641 103.248 126.462 102.51 128.075 101.425C129.689 100.341 131.059 98.9329 132.1 97.2912C133.057 95.8515 133.802 94.2822 134.314 92.631C136.586 85.3495 134.56 83.7281 128.398 81.4628L128.395 81.4595Z" fill="#464449"/>
<path fill-rule="evenodd" clip-rule="evenodd" d="M57.8963 82.8738C57.8963 80.8091 61.0808 80.0065 63.0679 92.3981C64.6725 87.3366 65.7101 82.1126 66.1617 76.822C69.9222 77.5502 73.5339 86.0389 72.398 93.4822C82.6439 90.9677 108.977 75.0777 117.54 53.5987C139.456 66.2233 139.336 92.7379 139.336 92.7379C139.336 92.7379 140.495 86.589 141.142 81.3593C141.356 79.6182 142.091 78.9871 143.725 80.6699C155.576 56.1262 136.893 18.6084 101.285 18.0259C52.3915 17.2298 46.1714 70.1748 57.8996 82.8771L57.8963 82.8738Z" fill="#8A5C42"/>
<path fill-rule="evenodd" clip-rule="evenodd" d="M80.1456 137.317C85.2587 144.937 92.5467 150.841 101.061 154.262L87.4433 174.146L68.2944 142.495L80.1456 137.317Z" fill="white"/>
<path fill-rule="evenodd" clip-rule="evenodd" d="M121.948 137.317C116.835 144.937 109.547 150.841 101.032 154.262L114.654 174.146L133.919 142.858L121.948 137.317Z" fill="white"/>
<path d="M101.045 172.819C102.545 172.819 103.76 171.603 103.76 170.104C103.76 168.604 102.545 167.388 101.045 167.388C99.5457 167.388 98.3301 168.604 98.3301 170.104C98.3301 171.603 99.5457 172.819 101.045 172.819Z" fill="#434955"/>
<path d="M101.045 184.887C102.545 184.887 103.76 183.671 103.76 182.172C103.76 180.672 102.545 179.456 101.045 179.456C99.5457 179.456 98.3301 180.672 98.3301 182.172C98.3301 183.671 99.5457 184.887 101.045 184.887Z" fill="#434955"/>
<path fill-rule="evenodd" clip-rule="evenodd" d="M135.913 80.055C141.686 82.3592 141.476 85.1715 140.337 86.0129C139.251 86.9099 138.383 88.0405 137.796 89.3204C137.543 91.6588 136.907 93.9396 135.913 96.0712V80.055ZM66.4338 94.5502C65.8018 92.867 65.3843 91.1111 65.191 89.3236C64.6327 88.0393 63.7789 86.9049 62.6991 86.0129C61.6085 85.2071 61.3626 82.5825 66.4338 80.3366V94.5502Z" fill="#464449"/>
</svg>
