<svg width="22" height="21" viewBox="0 0 22 21" fill="none" xmlns="http://www.w3.org/2000/svg">
<path d="M20.618 1.38203L20.9715 1.02848C20.6331 0.6901 20.1742 0.5 19.6957 0.5H2.30435C1.82581 0.5 1.36686 0.6901 1.02848 1.02848L20.618 1.38203ZM20.618 1.38203L20.9715 1.02848C21.3099 1.36686 21.5 1.8258 21.5 2.30435V12.3043V14.4783C21.5 14.9568 21.3099 15.4157 20.9715 15.7541C20.6331 16.0925 20.1742 16.2826 19.6957 16.2826H13.6744M20.618 1.38203L13.6744 16.2826M13.6744 16.2826C13.6746 16.2904 13.6749 16.2982 13.6753 16.3061C13.6876 16.6146 13.7228 17.0171 13.8114 17.4124C13.9015 17.8148 14.0379 18.168 14.2263 18.4109C14.4004 18.6352 14.6115 18.7609 14.913 18.7609C15.1892 18.7609 15.413 18.9847 15.413 19.2609C15.413 19.537 15.1892 19.7609 14.913 19.7609H7.08696C6.81081 19.7609 6.58696 19.537 6.58696 19.2609C6.58696 18.9847 6.81081 18.7609 7.08696 18.7609C7.38851 18.7609 7.59962 18.6352 7.77368 18.4109C7.96215 18.168 8.0985 17.8148 8.18861 17.4124C8.27717 17.0171 8.31241 16.6146 8.32475 16.3061C8.32506 16.2982 8.32536 16.2904 8.32565 16.2826H2.30435C1.82581 16.2826 1.36686 16.0925 1.02848 15.7541C0.690102 15.4157 0.5 14.9568 0.5 14.4783V12.3043L13.6744 16.2826Z" stroke="black" stroke-miterlimit="10" stroke-linecap="round" stroke-linejoin="round"/>
<path d="M11 14.9782C10.4838 14.9782 10.0652 14.5597 10.0652 14.0435C10.0652 13.5272 10.4838 13.1087 11 13.1087C11.5163 13.1087 11.9348 13.5272 11.9348 14.0435C11.9348 14.5597 11.5163 14.9782 11 14.9782Z" stroke="black" stroke-miterlimit="10" stroke-linecap="round" stroke-linejoin="round"/>
<mask id="path-3-outside-1_7_142" maskUnits="userSpaceOnUse" x="4.47815" y="4.78259" width="11" height="7" fill="black">
<rect fill="white" x="4.47815" y="4.78259" width="11" height="7"/>
<path d="M6.21728 5.78259V7.95651V5.78259ZM14.4781 6.46955V8.72346C14.4781 8.88491 14.433 9.04314 14.3481 9.18044C14.2632 9.31774 14.1417 9.42869 13.9973 9.50085L12.6468 10.1765C12.1354 10.4323 11.5713 10.5655 10.9995 10.5655C10.4276 10.5655 9.86354 10.4323 9.35206 10.1765L8.0025 9.50085C7.85808 9.42869 7.7366 9.31774 7.65167 9.18044C7.56674 9.04314 7.52171 8.88491 7.52163 8.72346V6.3739"/>
</mask>
<path d="M5.21728 5.78259C5.21728 5.23031 5.665 4.78259 6.21728 4.78259C6.76957 4.78259 7.21728 5.23031 7.21728 5.78259H5.21728ZM7.21728 7.95651C7.21728 8.50879 6.76957 8.95651 6.21728 8.95651C5.665 8.95651 5.21728 8.50879 5.21728 7.95651H7.21728ZM13.4781 6.46955C13.4781 5.91726 13.9259 5.46955 14.4781 5.46955C15.0304 5.46955 15.4781 5.91726 15.4781 6.46955H13.4781ZM14.4781 8.72346H15.4781L15.4781 8.724L14.4781 8.72346ZM13.9973 9.50085L13.5498 8.60654L13.5503 8.60632L13.9973 9.50085ZM12.6468 10.1765L13.0943 11.0708L13.0942 11.0709L12.6468 10.1765ZM10.9995 10.5655V9.56553V10.5655ZM9.35206 10.1765L8.90472 11.0709L8.90439 11.0707L9.35206 10.1765ZM8.0025 9.50085L8.4495 8.60632L8.45017 8.60666L8.0025 9.50085ZM7.52163 8.72346L6.52163 8.724V8.72346H7.52163ZM6.52163 6.3739C6.52163 5.82161 6.96934 5.3739 7.52163 5.3739C8.07391 5.3739 8.52163 5.82161 8.52163 6.3739H6.52163ZM7.21728 5.78259V7.95651H5.21728V5.78259H7.21728ZM5.21728 7.95651V5.78259H7.21728V7.95651H5.21728ZM15.4781 6.46955V8.72346H13.4781V6.46955H15.4781ZM15.4781 8.724C15.478 9.0711 15.3812 9.41131 15.1986 9.7065L13.4977 8.65438C13.4849 8.67498 13.4782 8.69871 13.4781 8.72293L15.4781 8.724ZM15.1986 9.7065C15.016 10.0017 14.7548 10.2402 14.4443 10.3954L13.5503 8.60632C13.5286 8.61714 13.5104 8.63379 13.4977 8.65438L15.1986 9.7065ZM14.4447 10.3952L13.0943 11.0708L12.1994 9.28219L13.5498 8.60654L14.4447 10.3952ZM13.0942 11.0709C12.4438 11.3962 11.7266 11.5655 10.9995 11.5655V9.56553C11.416 9.56553 11.8269 9.4685 12.1995 9.28214L13.0942 11.0709ZM10.9995 11.5655C10.2723 11.5655 9.55508 11.3962 8.90472 11.0709L9.79941 9.28214C10.172 9.4685 10.5829 9.56553 10.9995 9.56553V11.5655ZM8.90439 11.0707L7.55482 10.3951L8.45017 8.60666L9.79974 9.28231L8.90439 11.0707ZM7.5555 10.3954C7.245 10.2402 6.98383 10.0017 6.80123 9.7065L8.50212 8.65438C8.48938 8.63379 8.47116 8.61714 8.4495 8.60632L7.5555 10.3954ZM6.80123 9.7065C6.61863 9.41131 6.52181 9.0711 6.52163 8.724L8.52163 8.72293C8.52162 8.69871 8.51486 8.67498 8.50212 8.65438L6.80123 9.7065ZM6.52163 8.72346V6.3739H8.52163V8.72346H6.52163Z" fill="black" mask="url(#path-3-outside-1_7_142)"/>
<path d="M10.7931 3.15351C10.9245 3.09375 11.0754 3.09375 11.2069 3.15351L15.9895 5.32742C16.168 5.40855 16.2826 5.58653 16.2826 5.7826C16.2826 5.97867 16.168 6.15665 15.9895 6.23778L11.2069 8.4117C11.0754 8.47145 10.9245 8.47145 10.7931 8.4117L6.01048 6.23778C5.83198 6.15665 5.71738 5.97867 5.71738 5.7826C5.71738 5.58653 5.83198 5.40855 6.01048 5.32742L10.7931 3.15351ZM5.74304 7.7984C5.81109 7.59423 6.00216 7.45651 6.21738 7.45651C6.43259 7.45651 6.62366 7.59423 6.69172 7.7984L7.1265 9.10275C7.18639 9.28242 7.13963 9.4805 7.00571 9.61442L6.57093 10.0492C6.47716 10.143 6.34999 10.1956 6.21738 10.1956C6.08477 10.1956 5.95759 10.143 5.86382 10.0492L5.42904 9.61441C5.29513 9.4805 5.24836 9.28242 5.30825 9.10275L5.74304 7.7984Z" stroke="black" stroke-miterlimit="10" stroke-linecap="round" stroke-linejoin="round"/>
</svg>
