<svg width="273" height="69" viewBox="0 0 273 69" fill="none" xmlns="http://www.w3.org/2000/svg">
<path d="M85.85 51.5C83.0167 51.5 80.55 50.9167 78.45 49.75C76.3833 48.55 74.7833 46.9333 73.65 44.9C72.55 42.8667 72 40.5667 72 38C72 35 72.6 32.45 73.8 30.35C75.0333 28.2167 76.6333 26.5833 78.6 25.45C80.5667 24.3167 82.65 23.75 84.85 23.75C86.55 23.75 88.15 24.1 89.65 24.8C91.1833 25.5 92.5333 26.4667 93.7 27.7C94.8667 28.9 95.7833 30.3 96.45 31.9C97.15 33.5 97.5 35.2 97.5 37C97.4667 37.8 97.15 38.45 96.55 38.95C95.95 39.45 95.25 39.7 94.45 39.7H75.35L73.85 34.7H92.2L91.1 35.7V34.35C91.0333 33.3833 90.6833 32.5167 90.05 31.75C89.45 30.9833 88.6833 30.3833 87.75 29.95C86.85 29.4833 85.8833 29.25 84.85 29.25C83.85 29.25 82.9167 29.3833 82.05 29.65C81.1833 29.9167 80.4333 30.3667 79.8 31C79.1667 31.6333 78.6667 32.4833 78.3 33.55C77.9333 34.6167 77.75 35.9667 77.75 37.6C77.75 39.4 78.1167 40.9333 78.85 42.2C79.6167 43.4333 80.5833 44.3833 81.75 45.05C82.95 45.6833 84.2167 46 85.55 46C86.7833 46 87.7667 45.9 88.5 45.7C89.2333 45.5 89.8167 45.2667 90.25 45C90.7167 44.7 91.1333 44.45 91.5 44.25C92.1 43.95 92.6667 43.8 93.2 43.8C93.9333 43.8 94.5333 44.05 95 44.55C95.5 45.05 95.75 45.6333 95.75 46.3C95.75 47.2 95.2833 48.0167 94.35 48.75C93.4833 49.4833 92.2667 50.1333 90.7 50.7C89.1333 51.2333 87.5167 51.5 85.85 51.5ZM101.192 46.85C100.859 46.3833 100.709 45.7833 100.742 45.05C100.776 44.3167 101.209 43.6833 102.042 43.15C102.576 42.8167 103.142 42.6833 103.742 42.75C104.342 42.7833 104.926 43.0833 105.492 43.65C106.459 44.6167 107.476 45.3667 108.542 45.9C109.609 46.4333 110.942 46.7 112.542 46.7C113.042 46.6667 113.592 46.6 114.192 46.5C114.792 46.3667 115.309 46.1 115.742 45.7C116.209 45.2667 116.442 44.6167 116.442 43.75C116.442 43.0167 116.192 42.4333 115.692 42C115.192 41.5667 114.526 41.2 113.692 40.9C112.892 40.6 111.992 40.3167 110.992 40.05C109.959 39.75 108.892 39.4167 107.792 39.05C106.726 38.6833 105.742 38.2167 104.842 37.65C103.942 37.05 103.209 36.2667 102.642 35.3C102.076 34.3333 101.792 33.1167 101.792 31.65C101.792 29.9833 102.259 28.5667 103.192 27.4C104.126 26.2333 105.326 25.3333 106.792 24.7C108.292 24.0667 109.859 23.75 111.492 23.75C112.526 23.75 113.609 23.8833 114.742 24.15C115.876 24.3833 116.959 24.7833 117.992 25.35C119.026 25.8833 119.892 26.6 120.592 27.5C120.959 28 121.176 28.6 121.242 29.3C121.309 30 120.992 30.6333 120.292 31.2C119.792 31.6 119.209 31.7833 118.542 31.75C117.876 31.6833 117.326 31.45 116.892 31.05C116.326 30.3167 115.559 29.7333 114.592 29.3C113.659 28.8667 112.576 28.65 111.342 28.65C110.842 28.65 110.292 28.7167 109.692 28.85C109.126 28.95 108.626 29.2 108.192 29.6C107.759 29.9667 107.542 30.5667 107.542 31.4C107.542 32.1667 107.792 32.7833 108.292 33.25C108.792 33.6833 109.459 34.05 110.292 34.35C111.159 34.6167 112.076 34.8833 113.042 35.15C114.042 35.4167 115.059 35.7333 116.092 36.1C117.126 36.4667 118.076 36.95 118.942 37.55C119.809 38.15 120.509 38.9333 121.042 39.9C121.576 40.8333 121.842 42.0333 121.842 43.5C121.842 45.2 121.342 46.65 120.342 47.85C119.342 49.05 118.092 49.9667 116.592 50.6C115.092 51.2 113.559 51.5 111.992 51.5C110.026 51.5 108.059 51.1667 106.092 50.5C104.126 49.8 102.492 48.5833 101.192 46.85ZM132.513 47.95C132.513 48.8167 132.23 49.55 131.663 50.15C131.097 50.7167 130.38 51 129.513 51C128.647 51 127.93 50.7167 127.363 50.15C126.797 49.55 126.513 48.8167 126.513 47.95V27.3C126.513 26.4333 126.797 25.7167 127.363 25.15C127.93 24.55 128.647 24.25 129.513 24.25C130.38 24.25 131.097 24.55 131.663 25.15C132.23 25.7167 132.513 26.4333 132.513 27.3V47.95ZM129.463 21C128.33 21 127.53 20.8167 127.063 20.45C126.597 20.0833 126.363 19.4333 126.363 18.5V17.55C126.363 16.5833 126.613 15.9333 127.113 15.6C127.647 15.2333 128.447 15.05 129.513 15.05C130.68 15.05 131.497 15.2333 131.963 15.6C132.43 15.9667 132.663 16.6167 132.663 17.55V18.5C132.663 19.4667 132.413 20.1333 131.913 20.5C131.413 20.8333 130.597 21 129.463 21ZM149.78 23.75C151.18 23.75 152.463 23.9667 153.63 24.4C154.796 24.8333 155.796 25.3833 156.63 26.05C157.496 26.7167 158.163 27.4 158.63 28.1C159.13 28.7667 159.38 29.3333 159.38 29.8L158.08 30.45V26.8C158.08 25.9333 158.363 25.2167 158.93 24.65C159.496 24.05 160.213 23.75 161.08 23.75C161.946 23.75 162.663 24.0333 163.23 24.6C163.796 25.1667 164.08 25.9 164.08 26.8V49.05C164.08 51.95 163.446 54.2667 162.18 56C160.946 57.7667 159.313 59.0333 157.28 59.8C155.246 60.6 153.063 61 150.73 61C150.063 61 149.196 60.9167 148.13 60.75C147.063 60.5833 146.046 60.3833 145.08 60.15C144.113 59.9167 143.38 59.7 142.88 59.5C141.88 59.0667 141.18 58.5167 140.78 57.85C140.413 57.2167 140.346 56.5333 140.58 55.8C140.88 54.8333 141.363 54.1667 142.03 53.8C142.696 53.4667 143.396 53.4333 144.13 53.7C144.463 53.8 145.013 54 145.78 54.3C146.546 54.6 147.38 54.8667 148.28 55.1C149.213 55.3667 150.03 55.5 150.73 55.5C153.23 55.5 155.08 55 156.28 54C157.48 53 158.08 51.6167 158.08 49.85V45.5L158.68 45.95C158.68 46.3833 158.446 46.9167 157.98 47.55C157.546 48.15 156.93 48.75 156.13 49.35C155.363 49.95 154.446 50.4667 153.38 50.9C152.313 51.3 151.18 51.5 149.98 51.5C147.613 51.5 145.48 50.9167 143.58 49.75C141.68 48.55 140.18 46.9167 139.08 44.85C137.98 42.75 137.43 40.35 137.43 37.65C137.43 34.9167 137.98 32.5167 139.08 30.45C140.18 28.35 141.663 26.7167 143.53 25.55C145.396 24.35 147.48 23.75 149.78 23.75ZM150.73 29.25C149.23 29.25 147.913 29.6167 146.78 30.35C145.646 31.0833 144.763 32.0833 144.13 33.35C143.496 34.6167 143.18 36.05 143.18 37.65C143.18 39.2167 143.496 40.6333 144.13 41.9C144.763 43.1667 145.646 44.1667 146.78 44.9C147.913 45.6333 149.23 46 150.73 46C152.263 46 153.596 45.6333 154.73 44.9C155.863 44.1667 156.746 43.1667 157.38 41.9C158.013 40.6333 158.33 39.2167 158.33 37.65C158.33 36.05 158.013 34.6167 157.38 33.35C156.746 32.0833 155.863 31.0833 154.73 30.35C153.596 29.6167 152.263 29.25 150.73 29.25ZM184.864 23.75C187.331 23.75 189.198 24.2667 190.464 25.3C191.764 26.3333 192.648 27.7167 193.114 29.45C193.614 31.15 193.864 33.05 193.864 35.15V47.95C193.864 48.8167 193.581 49.55 193.014 50.15C192.448 50.7167 191.731 51 190.864 51C189.998 51 189.281 50.7167 188.714 50.15C188.148 49.55 187.864 48.8167 187.864 47.95V35.15C187.864 34.05 187.714 33.0667 187.414 32.2C187.148 31.3 186.648 30.5833 185.914 30.05C185.181 29.5167 184.131 29.25 182.764 29.25C181.431 29.25 180.298 29.5167 179.364 30.05C178.464 30.5833 177.764 31.3 177.264 32.2C176.798 33.0667 176.564 34.05 176.564 35.15V47.95C176.564 48.8167 176.281 49.55 175.714 50.15C175.148 50.7167 174.431 51 173.564 51C172.698 51 171.981 50.7167 171.414 50.15C170.848 49.55 170.564 48.8167 170.564 47.95V27.3C170.564 26.4333 170.848 25.7167 171.414 25.15C171.981 24.55 172.698 24.25 173.564 24.25C174.431 24.25 175.148 24.55 175.714 25.15C176.281 25.7167 176.564 26.4333 176.564 27.3V29.45L175.814 29.3C176.114 28.7333 176.548 28.1333 177.114 27.5C177.681 26.8333 178.348 26.2167 179.114 25.65C179.881 25.0833 180.748 24.6333 181.714 24.3C182.681 23.9333 183.731 23.75 184.864 23.75ZM212.95 51.5C210.116 51.5 207.65 50.9167 205.55 49.75C203.483 48.55 201.883 46.9333 200.75 44.9C199.65 42.8667 199.1 40.5667 199.1 38C199.1 35 199.7 32.45 200.9 30.35C202.133 28.2167 203.733 26.5833 205.7 25.45C207.666 24.3167 209.75 23.75 211.95 23.75C213.65 23.75 215.25 24.1 216.75 24.8C218.283 25.5 219.633 26.4667 220.8 27.7C221.966 28.9 222.883 30.3 223.55 31.9C224.25 33.5 224.6 35.2 224.6 37C224.566 37.8 224.25 38.45 223.65 38.95C223.05 39.45 222.35 39.7 221.55 39.7H202.45L200.95 34.7H219.3L218.2 35.7V34.35C218.133 33.3833 217.783 32.5167 217.15 31.75C216.55 30.9833 215.783 30.3833 214.85 29.95C213.95 29.4833 212.983 29.25 211.95 29.25C210.95 29.25 210.016 29.3833 209.15 29.65C208.283 29.9167 207.533 30.3667 206.9 31C206.266 31.6333 205.766 32.4833 205.4 33.55C205.033 34.6167 204.85 35.9667 204.85 37.6C204.85 39.4 205.216 40.9333 205.95 42.2C206.716 43.4333 207.683 44.3833 208.85 45.05C210.05 45.6833 211.316 46 212.65 46C213.883 46 214.866 45.9 215.6 45.7C216.333 45.5 216.916 45.2667 217.35 45C217.816 44.7 218.233 44.45 218.6 44.25C219.2 43.95 219.766 43.8 220.3 43.8C221.033 43.8 221.633 44.05 222.1 44.55C222.6 45.05 222.85 45.6333 222.85 46.3C222.85 47.2 222.383 48.0167 221.45 48.75C220.583 49.4833 219.366 50.1333 217.8 50.7C216.233 51.2333 214.616 51.5 212.95 51.5ZM232.842 51C231.975 51 231.258 50.7167 230.692 50.15C230.125 49.55 229.842 48.8167 229.842 47.95V27.3C229.842 26.4333 230.125 25.7167 230.692 25.15C231.258 24.55 231.975 24.25 232.842 24.25C233.708 24.25 234.425 24.55 234.992 25.15C235.558 25.7167 235.842 26.4333 235.842 27.3V32L235.492 28.65C235.858 27.85 236.325 27.15 236.892 26.55C237.492 25.9167 238.158 25.4 238.892 25C239.625 24.5667 240.408 24.25 241.242 24.05C242.075 23.85 242.908 23.75 243.742 23.75C244.742 23.75 245.575 24.0333 246.242 24.6C246.942 25.1667 247.292 25.8333 247.292 26.6C247.292 27.7 247.008 28.5 246.442 29C245.875 29.4667 245.258 29.7 244.592 29.7C243.958 29.7 243.375 29.5833 242.842 29.35C242.342 29.1167 241.758 29 241.092 29C240.492 29 239.875 29.15 239.242 29.45C238.642 29.7167 238.075 30.15 237.542 30.75C237.042 31.35 236.625 32.1 236.292 33C235.992 33.8667 235.842 34.9 235.842 36.1V47.95C235.842 48.8167 235.558 49.55 234.992 50.15C234.425 50.7167 233.708 51 232.842 51ZM249.971 46.85C249.638 46.3833 249.488 45.7833 249.521 45.05C249.555 44.3167 249.988 43.6833 250.821 43.15C251.355 42.8167 251.921 42.6833 252.521 42.75C253.121 42.7833 253.705 43.0833 254.271 43.65C255.238 44.6167 256.255 45.3667 257.321 45.9C258.388 46.4333 259.721 46.7 261.321 46.7C261.821 46.6667 262.371 46.6 262.971 46.5C263.571 46.3667 264.088 46.1 264.521 45.7C264.988 45.2667 265.221 44.6167 265.221 43.75C265.221 43.0167 264.971 42.4333 264.471 42C263.971 41.5667 263.305 41.2 262.471 40.9C261.671 40.6 260.771 40.3167 259.771 40.05C258.738 39.75 257.671 39.4167 256.571 39.05C255.505 38.6833 254.521 38.2167 253.621 37.65C252.721 37.05 251.988 36.2667 251.421 35.3C250.855 34.3333 250.571 33.1167 250.571 31.65C250.571 29.9833 251.038 28.5667 251.971 27.4C252.905 26.2333 254.105 25.3333 255.571 24.7C257.071 24.0667 258.638 23.75 260.271 23.75C261.305 23.75 262.388 23.8833 263.521 24.15C264.655 24.3833 265.738 24.7833 266.771 25.35C267.805 25.8833 268.671 26.6 269.371 27.5C269.738 28 269.955 28.6 270.021 29.3C270.088 30 269.771 30.6333 269.071 31.2C268.571 31.6 267.988 31.7833 267.321 31.75C266.655 31.6833 266.105 31.45 265.671 31.05C265.105 30.3167 264.338 29.7333 263.371 29.3C262.438 28.8667 261.355 28.65 260.121 28.65C259.621 28.65 259.071 28.7167 258.471 28.85C257.905 28.95 257.405 29.2 256.971 29.6C256.538 29.9667 256.321 30.5667 256.321 31.4C256.321 32.1667 256.571 32.7833 257.071 33.25C257.571 33.6833 258.238 34.05 259.071 34.35C259.938 34.6167 260.855 34.8833 261.821 35.15C262.821 35.4167 263.838 35.7333 264.871 36.1C265.905 36.4667 266.855 36.95 267.721 37.55C268.588 38.15 269.288 38.9333 269.821 39.9C270.355 40.8333 270.621 42.0333 270.621 43.5C270.621 45.2 270.121 46.65 269.121 47.85C268.121 49.05 266.871 49.9667 265.371 50.6C263.871 51.2 262.338 51.5 260.771 51.5C258.805 51.5 256.838 51.1667 254.871 50.5C252.905 49.8 251.271 48.5833 249.971 46.85Z" fill="black"/>
<path d="M28.7949 4.02875C29.2008 16.5632 31.3666 29.0446 33.4808 41.3918C34.9213 49.8039 36.2621 58.1394 38.8271 66.2891" stroke="#0083FD" stroke-width="5" stroke-linecap="round"/>
<path d="M12.9545 28.1255C14.0339 20.1904 15.0928 11.3018 24.7691 11.7328C36.3404 12.2483 58.9091 18.5991 62.7726 31.3663C66.8941 44.9863 45.7344 48.8731 36.95 50.9953C25.5271 53.7549 14.5385 54.4476 2.91192 53.3191" stroke="#0083FD" stroke-width="5" stroke-linecap="round"/>
</svg>
