<svg width="22" height="26" viewBox="0 0 22 26" fill="none" xmlns="http://www.w3.org/2000/svg">
<mask id="path-1-outside-1_7_148" maskUnits="userSpaceOnUse" x="0" y="0" width="22" height="26" fill="black">
<rect fill="white" width="22" height="26"/>
<path d="M4.46155 12.3839H14.4615C14.5636 12.3839 14.6614 12.4239 14.7335 12.4951C14.8056 12.5662 14.8462 12.6628 14.8462 12.7634C14.8462 12.864 14.8056 12.9606 14.7335 13.0317C14.6614 13.1029 14.5636 13.1429 14.4615 13.1429H4.46155C4.35955 13.1429 4.26172 13.1029 4.18959 13.0317C4.11746 12.9606 4.07694 12.864 4.07694 12.7634C4.07694 12.6628 4.11746 12.5662 4.18959 12.4951C4.26172 12.4239 4.35955 12.3839 4.46155 12.3839Z"/>
<path d="M4.46155 15.4196H17.5385C17.6405 15.4196 17.7383 15.4596 17.8104 15.5308C17.8826 15.6019 17.9231 15.6985 17.9231 15.7991C17.9231 15.8997 17.8826 15.9963 17.8104 16.0674C17.7383 16.1386 17.6405 16.1786 17.5385 16.1786H4.46155C4.35955 16.1786 4.26172 16.1386 4.18959 16.0674C4.11746 15.9963 4.07694 15.8997 4.07694 15.7991C4.07694 15.6985 4.11746 15.6019 4.18959 15.5308C4.26172 15.4596 4.35955 15.4196 4.46155 15.4196Z"/>
<path d="M4.07694 18.8348C4.07694 18.7342 4.11746 18.6377 4.18959 18.5665C4.26172 18.4953 4.35955 18.4554 4.46155 18.4554H17.5385C17.6405 18.4554 17.7383 18.4953 17.8104 18.5665C17.8826 18.6377 17.9231 18.7342 17.9231 18.8348C17.9231 18.9355 17.8826 19.032 17.8104 19.1031C17.7383 19.1743 17.6405 19.2143 17.5385 19.2143H4.46155C4.35955 19.2143 4.26172 19.1743 4.18959 19.1031C4.11746 19.032 4.07694 18.9355 4.07694 18.8348Z"/>
<path d="M17.5385 21.4911C17.6405 21.4911 17.7383 21.531 17.8104 21.6022C17.8826 21.6734 17.9231 21.7699 17.9231 21.8705C17.9231 21.9712 17.8826 22.0677 17.8104 22.1389C17.7383 22.21 17.6405 22.25 17.5385 22.25H9.07693C8.97493 22.25 8.8771 22.21 8.80497 22.1389C8.73284 22.0677 8.69232 21.9712 8.69232 21.8705C8.69232 21.7699 8.73284 21.6734 8.80497 21.6022C8.8771 21.531 8.97493 21.4911 9.07693 21.4911H17.5385Z"/>
<path d="M17.5385 10.1071H14.4615C14.3595 10.1071 14.2617 10.0672 14.1896 9.996C14.1175 9.92484 14.0769 9.82832 14.0769 9.72768C14.0769 9.62704 14.1175 9.53052 14.1896 9.45936C14.2617 9.38819 14.3595 9.34821 14.4615 9.34821H17.5385C17.6405 9.34821 17.7383 9.38819 17.8104 9.45936C17.8826 9.53052 17.9231 9.62704 17.9231 9.72768C17.9231 9.82832 17.8826 9.92484 17.8104 9.996C17.7383 10.0672 17.6405 10.1071 17.5385 10.1071Z"/>
<path d="M1.00002 1.37946C1.00002 1.27882 1.04054 1.18231 1.11267 1.11114C1.1848 1.03998 1.28263 1 1.38463 1H20.6154C20.7174 1 20.8152 1.03998 20.8873 1.11114C20.9595 1.18231 21 1.27882 21 1.37946V24.9062C21 25.0069 20.9595 25.1034 20.8873 25.1746C20.8152 25.2457 20.7174 25.2857 20.6154 25.2857H6.00001C5.89809 25.2853 5.80042 25.2454 5.72809 25.1745L1.11271 20.621C1.0409 20.5496 1.00042 20.4532 1.00002 20.3527V17.317C1.00002 17.2163 1.04054 17.1198 1.11267 17.0486C1.1848 16.9775 1.28263 16.9375 1.38463 16.9375C1.48664 16.9375 1.58447 16.9775 1.6566 17.0486C1.72873 17.1198 1.76925 17.2163 1.76925 17.317V19.9732H6.00001C6.10202 19.9732 6.19985 20.0132 6.27198 20.0844C6.34411 20.1555 6.38463 20.252 6.38463 20.3527V24.5268H20.2308V1.75893H1.76925V14.2812C1.76925 14.3819 1.72873 14.4784 1.6566 14.5496C1.58447 14.6207 1.48664 14.6607 1.38463 14.6607C1.28263 14.6607 1.1848 14.6207 1.11267 14.5496C1.04054 14.4784 1.00002 14.3819 1.00002 14.2812V1.37946ZM2.3131 20.7321L5.6154 23.9902V20.7321H2.3131Z"/>
<path d="M11.0196 9.84759L10.3381 7.83036H8.58501L7.90347 9.84759C7.88751 9.89493 7.86226 9.9387 7.82915 9.97641C7.79604 10.0141 7.75573 10.045 7.71052 10.0674C7.6653 10.0897 7.61607 10.103 7.56563 10.1066C7.51519 10.1102 7.46453 10.1039 7.41655 10.0882C7.36857 10.0724 7.3242 10.0475 7.28598 10.0148C7.24775 9.98218 7.21643 9.9424 7.19378 9.89779C7.17114 9.85318 7.15762 9.80461 7.15401 9.75485C7.15039 9.70509 7.15674 9.65511 7.1727 9.60777L8.71117 5.0542C8.73672 4.97848 8.78583 4.91264 8.8515 4.86605C8.91716 4.81945 8.99605 4.79446 9.07693 4.79464H9.84616C9.92692 4.79462 10.0056 4.81968 10.0711 4.86627C10.1367 4.91286 10.1856 4.9786 10.2112 5.0542L11.7496 9.60777C11.7656 9.65511 11.7719 9.70509 11.7683 9.75485C11.7647 9.80461 11.7512 9.85318 11.7285 9.89779C11.7059 9.9424 11.6746 9.98218 11.6364 10.0148C11.5981 10.0475 11.5538 10.0724 11.5058 10.0882C11.4578 10.1039 11.4071 10.1102 11.3567 10.1066C11.3063 10.103 11.257 10.0897 11.2118 10.0674C11.1666 10.045 11.1263 10.0141 11.0932 9.97641C11.0601 9.9387 11.0348 9.89493 11.0189 9.84759H11.0196ZM9.56886 5.55357H9.35424L8.84117 7.07143H10.0819L9.56886 5.55357Z"/>
<path d="M4.46155 5.17411H5.6154V4.03571C5.6154 3.93507 5.65592 3.83856 5.72805 3.76739C5.80018 3.69623 5.89801 3.65625 6.00001 3.65625C6.10202 3.65625 6.19985 3.69623 6.27198 3.76739C6.34411 3.83856 6.38463 3.93507 6.38463 4.03571V5.17411H7.53847C7.64048 5.17411 7.73831 5.21409 7.81044 5.28525C7.88257 5.35641 7.92309 5.45293 7.92309 5.55357C7.92309 5.65421 7.88257 5.75073 7.81044 5.82189C7.73831 5.89306 7.64048 5.93304 7.53847 5.93304H6.38463V7.07143C6.38463 7.17207 6.34411 7.26859 6.27198 7.33975C6.19985 7.41091 6.10202 7.45089 6.00001 7.45089C5.89801 7.45089 5.80018 7.41091 5.72805 7.33975C5.65592 7.26859 5.6154 7.17207 5.6154 7.07143V5.93304H4.46155C4.35955 5.93304 4.26172 5.89306 4.18959 5.82189C4.11746 5.75073 4.07694 5.65421 4.07694 5.55357C4.07694 5.45293 4.11746 5.35641 4.18959 5.28525C4.26172 5.21409 4.35955 5.17411 4.46155 5.17411Z"/>
<path d="M1.65771 15.5297C1.69165 15.5666 1.71897 15.6089 1.73848 15.6549C1.75876 15.7003 1.76923 15.7495 1.76923 15.7991C1.76923 15.8488 1.75876 15.8979 1.73848 15.9433C1.71897 15.9893 1.69165 16.0316 1.65771 16.0685C1.58396 16.1378 1.48645 16.1771 1.38463 16.1786C1.28267 16.1778 1.1849 16.1384 1.11156 16.0685C1.07761 16.0316 1.0503 15.9893 1.03079 15.9433C1.01049 15.8979 1 15.8488 1 15.7991C1 15.7495 1.01049 15.7003 1.03079 15.6549C1.0503 15.6089 1.07761 15.5666 1.11156 15.5297C1.18594 15.462 1.28343 15.4244 1.38463 15.4244C1.48584 15.4244 1.58333 15.462 1.65771 15.5297Z"/>
</mask>
<path d="M4.46155 12.3839H14.4615C14.5636 12.3839 14.6614 12.4239 14.7335 12.4951C14.8056 12.5662 14.8462 12.6628 14.8462 12.7634C14.8462 12.864 14.8056 12.9606 14.7335 13.0317C14.6614 13.1029 14.5636 13.1429 14.4615 13.1429H4.46155C4.35955 13.1429 4.26172 13.1029 4.18959 13.0317C4.11746 12.9606 4.07694 12.864 4.07694 12.7634C4.07694 12.6628 4.11746 12.5662 4.18959 12.4951C4.26172 12.4239 4.35955 12.3839 4.46155 12.3839Z" fill="url(#paint0_linear_7_148)"/>
<path d="M4.46155 15.4196H17.5385C17.6405 15.4196 17.7383 15.4596 17.8104 15.5308C17.8826 15.6019 17.9231 15.6985 17.9231 15.7991C17.9231 15.8997 17.8826 15.9963 17.8104 16.0674C17.7383 16.1386 17.6405 16.1786 17.5385 16.1786H4.46155C4.35955 16.1786 4.26172 16.1386 4.18959 16.0674C4.11746 15.9963 4.07694 15.8997 4.07694 15.7991C4.07694 15.6985 4.11746 15.6019 4.18959 15.5308C4.26172 15.4596 4.35955 15.4196 4.46155 15.4196Z" fill="url(#paint1_linear_7_148)"/>
<path d="M4.07694 18.8348C4.07694 18.7342 4.11746 18.6377 4.18959 18.5665C4.26172 18.4953 4.35955 18.4554 4.46155 18.4554H17.5385C17.6405 18.4554 17.7383 18.4953 17.8104 18.5665C17.8826 18.6377 17.9231 18.7342 17.9231 18.8348C17.9231 18.9355 17.8826 19.032 17.8104 19.1031C17.7383 19.1743 17.6405 19.2143 17.5385 19.2143H4.46155C4.35955 19.2143 4.26172 19.1743 4.18959 19.1031C4.11746 19.032 4.07694 18.9355 4.07694 18.8348Z" fill="url(#paint2_linear_7_148)"/>
<path d="M17.5385 21.4911C17.6405 21.4911 17.7383 21.531 17.8104 21.6022C17.8826 21.6734 17.9231 21.7699 17.9231 21.8705C17.9231 21.9712 17.8826 22.0677 17.8104 22.1389C17.7383 22.21 17.6405 22.25 17.5385 22.25H9.07693C8.97493 22.25 8.8771 22.21 8.80497 22.1389C8.73284 22.0677 8.69232 21.9712 8.69232 21.8705C8.69232 21.7699 8.73284 21.6734 8.80497 21.6022C8.8771 21.531 8.97493 21.4911 9.07693 21.4911H17.5385Z" fill="url(#paint3_linear_7_148)"/>
<path d="M17.5385 10.1071H14.4615C14.3595 10.1071 14.2617 10.0672 14.1896 9.996C14.1175 9.92484 14.0769 9.82832 14.0769 9.72768C14.0769 9.62704 14.1175 9.53052 14.1896 9.45936C14.2617 9.38819 14.3595 9.34821 14.4615 9.34821H17.5385C17.6405 9.34821 17.7383 9.38819 17.8104 9.45936C17.8826 9.53052 17.9231 9.62704 17.9231 9.72768C17.9231 9.82832 17.8826 9.92484 17.8104 9.996C17.7383 10.0672 17.6405 10.1071 17.5385 10.1071Z" fill="url(#paint4_linear_7_148)"/>
<path d="M1.00002 1.37946C1.00002 1.27882 1.04054 1.18231 1.11267 1.11114C1.1848 1.03998 1.28263 1 1.38463 1H20.6154C20.7174 1 20.8152 1.03998 20.8873 1.11114C20.9595 1.18231 21 1.27882 21 1.37946V24.9062C21 25.0069 20.9595 25.1034 20.8873 25.1746C20.8152 25.2457 20.7174 25.2857 20.6154 25.2857H6.00001C5.89809 25.2853 5.80042 25.2454 5.72809 25.1745L1.11271 20.621C1.0409 20.5496 1.00042 20.4532 1.00002 20.3527V17.317C1.00002 17.2163 1.04054 17.1198 1.11267 17.0486C1.1848 16.9775 1.28263 16.9375 1.38463 16.9375C1.48664 16.9375 1.58447 16.9775 1.6566 17.0486C1.72873 17.1198 1.76925 17.2163 1.76925 17.317V19.9732H6.00001C6.10202 19.9732 6.19985 20.0132 6.27198 20.0844C6.34411 20.1555 6.38463 20.252 6.38463 20.3527V24.5268H20.2308V1.75893H1.76925V14.2812C1.76925 14.3819 1.72873 14.4784 1.6566 14.5496C1.58447 14.6207 1.48664 14.6607 1.38463 14.6607C1.28263 14.6607 1.1848 14.6207 1.11267 14.5496C1.04054 14.4784 1.00002 14.3819 1.00002 14.2812V1.37946ZM2.3131 20.7321L5.6154 23.9902V20.7321H2.3131Z" fill="url(#paint5_linear_7_148)"/>
<path d="M11.0196 9.84759L10.3381 7.83036H8.58501L7.90347 9.84759C7.88751 9.89493 7.86226 9.9387 7.82915 9.97641C7.79604 10.0141 7.75573 10.045 7.71052 10.0674C7.6653 10.0897 7.61607 10.103 7.56563 10.1066C7.51519 10.1102 7.46453 10.1039 7.41655 10.0882C7.36857 10.0724 7.3242 10.0475 7.28598 10.0148C7.24775 9.98218 7.21643 9.9424 7.19378 9.89779C7.17114 9.85318 7.15762 9.80461 7.15401 9.75485C7.15039 9.70509 7.15674 9.65511 7.1727 9.60777L8.71117 5.0542C8.73672 4.97848 8.78583 4.91264 8.8515 4.86605C8.91716 4.81945 8.99605 4.79446 9.07693 4.79464H9.84616C9.92692 4.79462 10.0056 4.81968 10.0711 4.86627C10.1367 4.91286 10.1856 4.9786 10.2112 5.0542L11.7496 9.60777C11.7656 9.65511 11.7719 9.70509 11.7683 9.75485C11.7647 9.80461 11.7512 9.85318 11.7285 9.89779C11.7059 9.9424 11.6746 9.98218 11.6364 10.0148C11.5981 10.0475 11.5538 10.0724 11.5058 10.0882C11.4578 10.1039 11.4071 10.1102 11.3567 10.1066C11.3063 10.103 11.257 10.0897 11.2118 10.0674C11.1666 10.045 11.1263 10.0141 11.0932 9.97641C11.0601 9.9387 11.0348 9.89493 11.0189 9.84759H11.0196ZM9.56886 5.55357H9.35424L8.84117 7.07143H10.0819L9.56886 5.55357Z" fill="url(#paint6_linear_7_148)"/>
<path d="M4.46155 5.17411H5.6154V4.03571C5.6154 3.93507 5.65592 3.83856 5.72805 3.76739C5.80018 3.69623 5.89801 3.65625 6.00001 3.65625C6.10202 3.65625 6.19985 3.69623 6.27198 3.76739C6.34411 3.83856 6.38463 3.93507 6.38463 4.03571V5.17411H7.53847C7.64048 5.17411 7.73831 5.21409 7.81044 5.28525C7.88257 5.35641 7.92309 5.45293 7.92309 5.55357C7.92309 5.65421 7.88257 5.75073 7.81044 5.82189C7.73831 5.89306 7.64048 5.93304 7.53847 5.93304H6.38463V7.07143C6.38463 7.17207 6.34411 7.26859 6.27198 7.33975C6.19985 7.41091 6.10202 7.45089 6.00001 7.45089C5.89801 7.45089 5.80018 7.41091 5.72805 7.33975C5.65592 7.26859 5.6154 7.17207 5.6154 7.07143V5.93304H4.46155C4.35955 5.93304 4.26172 5.89306 4.18959 5.82189C4.11746 5.75073 4.07694 5.65421 4.07694 5.55357C4.07694 5.45293 4.11746 5.35641 4.18959 5.28525C4.26172 5.21409 4.35955 5.17411 4.46155 5.17411Z" fill="url(#paint7_linear_7_148)"/>
<path d="M1.65771 15.5297C1.69165 15.5666 1.71897 15.6089 1.73848 15.6549C1.75876 15.7003 1.76923 15.7495 1.76923 15.7991C1.76923 15.8488 1.75876 15.8979 1.73848 15.9433C1.71897 15.9893 1.69165 16.0316 1.65771 16.0685C1.58396 16.1378 1.48645 16.1771 1.38463 16.1786C1.28267 16.1778 1.1849 16.1384 1.11156 16.0685C1.07761 16.0316 1.0503 15.9893 1.03079 15.9433C1.01049 15.8979 1 15.8488 1 15.7991C1 15.7495 1.01049 15.7003 1.03079 15.6549C1.0503 15.6089 1.07761 15.5666 1.11156 15.5297C1.18594 15.462 1.28343 15.4244 1.38463 15.4244C1.48584 15.4244 1.58333 15.462 1.65771 15.5297Z" fill="url(#paint8_linear_7_148)"/>
<path d="M6.00001 25.2857V25.4857L5.99924 25.4857L6.00001 25.2857ZM5.72809 25.1745L5.58813 25.3174L5.58763 25.3169L5.72809 25.1745ZM1.11271 20.621L0.972244 20.7633L0.971743 20.7628L1.11271 20.621ZM1.00002 20.3527L0.800018 20.3535V20.3527H1.00002ZM1.11267 17.0486L1.25313 17.191L1.11267 17.0486ZM1.6566 17.0486L1.51613 17.191L1.6566 17.0486ZM1.76925 19.9732V20.1732H1.56925V19.9732H1.76925ZM6.38463 24.5268V24.7268H6.18463V24.5268H6.38463ZM20.2308 24.5268H20.4308V24.7268H20.2308V24.5268ZM20.2308 1.75893V1.55893H20.4308V1.75893H20.2308ZM1.76925 1.75893H1.56925V1.55893H1.76925V1.75893ZM2.3131 20.7321L2.17263 20.8745L1.82561 20.5321H2.3131V20.7321ZM5.6154 23.9902H5.8154V24.4685L5.47493 24.1326L5.6154 23.9902ZM5.6154 20.7321V20.5321H5.8154V20.7321H5.6154ZM11.0196 9.84759L11.2091 9.78357L11.2983 10.0476H11.0196V9.84759ZM10.3381 7.83036V7.63036H10.4816L10.5276 7.76634L10.3381 7.83036ZM8.58501 7.83036L8.39553 7.76634L8.44148 7.63036H8.58501V7.83036ZM7.90347 9.84759L7.71395 9.78369L7.714 9.78357L7.90347 9.84759ZM7.1727 9.60777L6.98319 9.54387L6.98323 9.54375L7.1727 9.60777ZM8.71117 5.0542L8.90066 5.11817L8.90064 5.11821L8.71117 5.0542ZM9.07693 4.79464V4.99464L9.07649 4.99464L9.07693 4.79464ZM9.84616 4.79464L9.84621 4.99464H9.84616V4.79464ZM10.2112 5.0542L10.0217 5.11821L10.0217 5.11817L10.2112 5.0542ZM11.7496 9.60777L11.9391 9.54375L11.9391 9.54387L11.7496 9.60777ZM11.0189 9.84759L10.8293 9.91148L10.7404 9.64759H11.0189V9.84759ZM9.56886 5.55357V5.35357H9.71237L9.75832 5.48953L9.56886 5.55357ZM9.35424 5.55357L9.16477 5.48953L9.21073 5.35357H9.35424V5.55357ZM8.84117 7.07143V7.27143H8.56244L8.6517 7.00738L8.84117 7.07143ZM10.0819 7.07143L10.2714 7.00738L10.3607 7.27143H10.0819V7.07143ZM5.6154 5.17411H5.8154V5.37411H5.6154V5.17411ZM6.38463 5.17411V5.37411H6.18463V5.17411H6.38463ZM6.38463 5.93304H6.18463V5.73304H6.38463V5.93304ZM5.6154 5.93304V5.73304H5.8154V5.93304H5.6154ZM1.65771 15.5297L1.79235 15.3818L1.79891 15.3878L1.80492 15.3943L1.65771 15.5297ZM1.73848 15.6549L1.55581 15.7364L1.55438 15.7331L1.73848 15.6549ZM1.76923 15.7991H1.56923H1.76923ZM1.73848 15.9433L1.55434 15.8651L1.55584 15.8618L1.73848 15.9433ZM1.65771 16.0685L1.80492 16.2039L1.79997 16.2093L1.79464 16.2143L1.65771 16.0685ZM1.38463 16.1786L1.38753 16.3786L1.38316 16.3786L1.38463 16.1786ZM1.11156 16.0685L0.973276 16.2136L0.964348 16.2039L1.11156 16.0685ZM1.03079 15.9433L1.21342 15.8617L1.21489 15.8652L1.03079 15.9433ZM1.03079 15.6549L1.21492 15.7331L1.21339 15.7365L1.03079 15.6549ZM1.11156 15.5297L0.964348 15.3943L0.970358 15.3878L0.976921 15.3818L1.11156 15.5297ZM1.38463 15.4244V15.2244V15.4244ZM4.46155 12.1839H14.4615V12.5839H4.46155V12.1839ZM14.4615 12.1839C14.6157 12.1839 14.7641 12.2443 14.874 12.3527L14.593 12.6374C14.5586 12.6035 14.5114 12.5839 14.4615 12.5839V12.1839ZM14.874 12.3527C14.9839 12.4612 15.0462 12.6088 15.0462 12.7634H14.6462C14.6462 12.7167 14.6274 12.6713 14.593 12.6374L14.874 12.3527ZM15.0462 12.7634C15.0462 12.918 14.9839 13.0656 14.874 13.1741L14.593 12.8893C14.6274 12.8555 14.6462 12.8101 14.6462 12.7634H15.0462ZM14.874 13.1741C14.7641 13.2825 14.6157 13.3429 14.4615 13.3429V12.9429C14.5114 12.9429 14.5586 12.9233 14.593 12.8893L14.874 13.1741ZM14.4615 13.3429H4.46155V12.9429H14.4615V13.3429ZM4.46155 13.3429C4.30737 13.3429 4.15896 13.2825 4.04912 13.1741L4.33005 12.8893C4.36448 12.9233 4.41173 12.9429 4.46155 12.9429V13.3429ZM4.04912 13.1741C3.9392 13.0656 3.87694 12.918 3.87694 12.7634H4.27694C4.27694 12.8101 4.29572 12.8555 4.33005 12.8893L4.04912 13.1741ZM3.87694 12.7634C3.87694 12.6088 3.9392 12.4612 4.04912 12.3527L4.33005 12.6374C4.29572 12.6713 4.27694 12.7167 4.27694 12.7634H3.87694ZM4.04912 12.3527C4.15896 12.2443 4.30737 12.1839 4.46155 12.1839V12.5839C4.41173 12.5839 4.36448 12.6035 4.33005 12.6374L4.04912 12.3527ZM4.46155 15.2196H17.5385V15.6196H4.46155V15.2196ZM17.5385 15.2196C17.6927 15.2196 17.8411 15.28 17.9509 15.3884L17.67 15.6732C17.6355 15.6392 17.5883 15.6196 17.5385 15.6196V15.2196ZM17.9509 15.3884C18.0608 15.4969 18.1231 15.6445 18.1231 15.7991H17.7231C17.7231 15.7524 17.7043 15.707 17.67 15.6732L17.9509 15.3884ZM18.1231 15.7991C18.1231 15.9537 18.0608 16.1013 17.9509 16.2098L17.67 15.9251C17.7043 15.8912 17.7231 15.8458 17.7231 15.7991H18.1231ZM17.9509 16.2098C17.8411 16.3182 17.6927 16.3786 17.5385 16.3786V15.9786C17.5883 15.9786 17.6355 15.959 17.67 15.9251L17.9509 16.2098ZM17.5385 16.3786H4.46155V15.9786H17.5385V16.3786ZM4.46155 16.3786C4.30737 16.3786 4.15896 16.3182 4.04912 16.2098L4.33005 15.9251C4.36448 15.959 4.41173 15.9786 4.46155 15.9786V16.3786ZM4.04912 16.2098C3.9392 16.1013 3.87694 15.9537 3.87694 15.7991H4.27694C4.27694 15.8458 4.29572 15.8912 4.33005 15.9251L4.04912 16.2098ZM3.87694 15.7991C3.87694 15.6445 3.9392 15.4969 4.04912 15.3884L4.33005 15.6732C4.29572 15.707 4.27694 15.7524 4.27694 15.7991H3.87694ZM4.04912 15.3884C4.15896 15.28 4.30737 15.2196 4.46155 15.2196V15.6196C4.41173 15.6196 4.36448 15.6392 4.33005 15.6732L4.04912 15.3884ZM3.87694 18.8348C3.87694 18.6803 3.9392 18.5326 4.04912 18.4241L4.33005 18.7089C4.29572 18.7427 4.27694 18.7881 4.27694 18.8348H3.87694ZM4.04912 18.4241C4.15896 18.3158 4.30737 18.2554 4.46155 18.2554V18.6554C4.41173 18.6554 4.36448 18.6749 4.33005 18.7089L4.04912 18.4241ZM4.46155 18.2554H17.5385V18.6554H4.46155V18.2554ZM17.5385 18.2554C17.6927 18.2554 17.8411 18.3158 17.9509 18.4241L17.67 18.7089C17.6355 18.6749 17.5883 18.6554 17.5385 18.6554V18.2554ZM17.9509 18.4241C18.0608 18.5326 18.1231 18.6803 18.1231 18.8348H17.7231C17.7231 18.7881 17.7043 18.7427 17.67 18.7089L17.9509 18.4241ZM18.1231 18.8348C18.1231 18.9894 18.0608 19.1371 17.9509 19.2455L17.67 18.9608C17.7043 18.9269 17.7231 18.8815 17.7231 18.8348H18.1231ZM17.9509 19.2455C17.8411 19.3539 17.6927 19.4143 17.5385 19.4143V19.0143C17.5883 19.0143 17.6355 18.9947 17.67 18.9608L17.9509 19.2455ZM17.5385 19.4143H4.46155V19.0143H17.5385V19.4143ZM4.46155 19.4143C4.30737 19.4143 4.15896 19.3539 4.04912 19.2455L4.33005 18.9608C4.36448 18.9947 4.41173 19.0143 4.46155 19.0143V19.4143ZM4.04912 19.2455C3.9392 19.1371 3.87694 18.9894 3.87694 18.8348H4.27694C4.27694 18.8815 4.29572 18.9269 4.33005 18.9608L4.04912 19.2455ZM17.5385 21.2911C17.6927 21.2911 17.8411 21.3515 17.9509 21.4598L17.67 21.7446C17.6355 21.7106 17.5883 21.6911 17.5385 21.6911V21.2911ZM17.9509 21.4598C18.0608 21.5683 18.1231 21.716 18.1231 21.8705H17.7231C17.7231 21.8238 17.7043 21.7785 17.67 21.7446L17.9509 21.4598ZM18.1231 21.8705C18.1231 22.0251 18.0608 22.1728 17.9509 22.2812L17.67 21.9965C17.7043 21.9626 17.7231 21.9173 17.7231 21.8705H18.1231ZM17.9509 22.2812C17.8411 22.3896 17.6927 22.45 17.5385 22.45V22.05C17.5883 22.05 17.6355 22.0304 17.67 21.9965L17.9509 22.2812ZM17.5385 22.45H9.07693V22.05H17.5385V22.45ZM9.07693 22.45C8.92275 22.45 8.77434 22.3896 8.66451 22.2812L8.94543 21.9965C8.97986 22.0304 9.02711 22.05 9.07693 22.05V22.45ZM8.66451 22.2812C8.55458 22.1728 8.49232 22.0251 8.49232 21.8705H8.89232C8.89232 21.9173 8.91111 21.9626 8.94543 21.9965L8.66451 22.2812ZM8.49232 21.8705C8.49232 21.716 8.55458 21.5683 8.66451 21.4598L8.94543 21.7446C8.91111 21.7785 8.89232 21.8238 8.89232 21.8705H8.49232ZM8.66451 21.4598C8.77434 21.3515 8.92275 21.2911 9.07693 21.2911V21.6911C9.02711 21.6911 8.97986 21.7106 8.94543 21.7446L8.66451 21.4598ZM9.07693 21.2911H17.5385V21.6911H9.07693V21.2911ZM17.5385 10.3071H14.4615V9.90714H17.5385V10.3071ZM14.4615 10.3071C14.3074 10.3071 14.159 10.2467 14.0491 10.1384L14.33 9.85363C14.3645 9.88759 14.4117 9.90714 14.4615 9.90714V10.3071ZM14.0491 10.1384C13.9392 10.0299 13.8769 9.88224 13.8769 9.72768H14.2769C14.2769 9.7744 14.2957 9.81976 14.33 9.85363L14.0491 10.1384ZM13.8769 9.72768C13.8769 9.57312 13.9392 9.42544 14.0491 9.31699L14.33 9.60173C14.2957 9.6356 14.2769 9.68096 14.2769 9.72768H13.8769ZM14.0491 9.31699C14.159 9.20862 14.3074 9.14821 14.4615 9.14821V9.54821C14.4117 9.54821 14.3645 9.56777 14.33 9.60173L14.0491 9.31699ZM14.4615 9.14821H17.5385V9.54821H14.4615V9.14821ZM17.5385 9.14821C17.6927 9.14821 17.8411 9.20862 17.9509 9.31699L17.67 9.60173C17.6355 9.56777 17.5883 9.54821 17.5385 9.54821V9.14821ZM17.9509 9.31699C18.0608 9.42544 18.1231 9.57312 18.1231 9.72768H17.7231C17.7231 9.68096 17.7043 9.6356 17.67 9.60173L17.9509 9.31699ZM18.1231 9.72768C18.1231 9.88224 18.0608 10.0299 17.9509 10.1384L17.67 9.85363C17.7043 9.81976 17.7231 9.7744 17.7231 9.72768H18.1231ZM17.9509 10.1384C17.8411 10.2467 17.6927 10.3071 17.5385 10.3071V9.90714C17.5883 9.90714 17.6355 9.88759 17.67 9.85363L17.9509 10.1384ZM0.800018 1.37946C0.800018 1.2249 0.862276 1.07723 0.972204 0.968771L1.25313 1.25351C1.2188 1.28738 1.20002 1.33274 1.20002 1.37946H0.800018ZM0.972204 0.968771C1.08204 0.860404 1.23045 0.8 1.38463 0.8V1.2C1.33481 1.2 1.28756 1.21955 1.25313 1.25351L0.972204 0.968771ZM1.38463 0.8H20.6154V1.2H1.38463V0.8ZM20.6154 0.8C20.7696 0.8 20.918 0.860405 21.0278 0.968771L20.7469 1.25351C20.7125 1.21955 20.6652 1.2 20.6154 1.2V0.8ZM21.0278 0.968771C21.1377 1.07723 21.2 1.2249 21.2 1.37946H20.8C20.8 1.33274 20.7812 1.28738 20.7469 1.25351L21.0278 0.968771ZM21.2 1.37946V24.9062H20.8V1.37946H21.2ZM21.2 24.9062C21.2 25.0608 21.1377 25.2085 21.0278 25.3169L20.7469 25.0322C20.7812 24.9983 20.8 24.953 20.8 24.9062H21.2ZM21.0278 25.3169C20.918 25.4253 20.7696 25.4857 20.6154 25.4857V25.0857C20.6652 25.0857 20.7125 25.0662 20.7469 25.0322L21.0278 25.3169ZM20.6154 25.4857H6.00001V25.0857H20.6154V25.4857ZM5.99924 25.4857C5.84565 25.4851 5.69792 25.425 5.58813 25.3174L5.86805 25.0317C5.90291 25.0658 5.95054 25.0855 6.00078 25.0857L5.99924 25.4857ZM5.58763 25.3169L0.972246 20.7633L1.25318 20.4786L5.86856 25.0322L5.58763 25.3169ZM0.971743 20.7628C0.862623 20.6544 0.800629 20.5074 0.80002 20.3535L1.20002 20.3519C1.2002 20.3991 1.21917 20.4448 1.25368 20.4791L0.971743 20.7628ZM0.800018 20.3527V17.317H1.20002V20.3527H0.800018ZM0.800018 17.317C0.800018 17.1624 0.862274 17.0147 0.972204 16.9063L1.25313 17.191C1.21881 17.2249 1.20002 17.2702 1.20002 17.317H0.800018ZM0.972204 16.9063C1.08204 16.7979 1.23045 16.7375 1.38463 16.7375V17.1375C1.33481 17.1375 1.28755 17.1571 1.25313 17.191L0.972204 16.9063ZM1.38463 16.7375C1.53882 16.7375 1.68723 16.7979 1.79706 16.9063L1.51613 17.191C1.48171 17.1571 1.43446 17.1375 1.38463 17.1375V16.7375ZM1.79706 16.9063C1.90699 17.0147 1.96925 17.1624 1.96925 17.317H1.56925C1.56925 17.2702 1.55046 17.2249 1.51613 17.191L1.79706 16.9063ZM1.96925 17.317V19.9732H1.56925V17.317H1.96925ZM1.76925 19.7732H6.00001V20.1732H1.76925V19.7732ZM6.00001 19.7732C6.1542 19.7732 6.3026 19.8336 6.41244 19.942L6.13151 20.2267C6.09709 20.1928 6.04984 20.1732 6.00001 20.1732V19.7732ZM6.41244 19.942C6.52237 20.0504 6.58463 20.1981 6.58463 20.3527H6.18463C6.18463 20.306 6.16584 20.2606 6.13151 20.2267L6.41244 19.942ZM6.58463 20.3527V24.5268H6.18463V20.3527H6.58463ZM6.38463 24.3268H20.2308V24.7268H6.38463V24.3268ZM20.0308 24.5268V1.75893H20.4308V24.5268H20.0308ZM20.2308 1.95893H1.76925V1.55893H20.2308V1.95893ZM1.96925 1.75893V14.2812H1.56925V1.75893H1.96925ZM1.96925 14.2812C1.96925 14.4358 1.90699 14.5835 1.79706 14.6919L1.51613 14.4072C1.55046 14.3733 1.56925 14.328 1.56925 14.2812H1.96925ZM1.79706 14.6919C1.68723 14.8003 1.53882 14.8607 1.38463 14.8607V14.4607C1.43446 14.4607 1.48171 14.4412 1.51613 14.4072L1.79706 14.6919ZM1.38463 14.8607C1.23045 14.8607 1.08204 14.8003 0.972204 14.6919L1.25313 14.4072C1.28755 14.4412 1.33481 14.4607 1.38463 14.4607V14.8607ZM0.972204 14.6919C0.862274 14.5835 0.800018 14.4358 0.800018 14.2812H1.20002C1.20002 14.328 1.21881 14.3733 1.25313 14.4072L0.972204 14.6919ZM0.800018 14.2812V1.37946H1.20002V14.2812H0.800018ZM2.45356 20.5898L5.75586 23.8479L5.47493 24.1326L2.17263 20.8745L2.45356 20.5898ZM5.4154 23.9902V20.7321H5.8154V23.9902H5.4154ZM5.6154 20.9321H2.3131V20.5321H5.6154V20.9321ZM10.8301 9.91161L10.1486 7.89437L10.5276 7.76634L11.2091 9.78357L10.8301 9.91161ZM10.3381 8.03036H8.58501V7.63036H10.3381V8.03036ZM8.77449 7.89437L8.09295 9.91161L7.714 9.78357L8.39553 7.76634L8.77449 7.89437ZM8.09299 9.91148C8.06855 9.984 8.02991 10.0509 7.97944 10.1084L7.67885 9.84446C7.6946 9.82653 7.70648 9.80586 7.71395 9.78369L8.09299 9.91148ZM7.97944 10.1084C7.92898 10.1658 7.86767 10.2128 7.79911 10.2467L7.62192 9.88807C7.64379 9.87726 7.6631 9.8624 7.67885 9.84446L7.97944 10.1084ZM7.79911 10.2467C7.73055 10.2806 7.65601 10.3007 7.57974 10.3061L7.55152 9.90711C7.57612 9.90537 7.60005 9.89887 7.62192 9.88807L7.79911 10.2467ZM7.57974 10.3061C7.50347 10.3115 7.42684 10.302 7.35419 10.2782L7.47891 9.89814C7.50223 9.90579 7.52691 9.90886 7.55152 9.90711L7.57974 10.3061ZM7.35419 10.2782C7.28153 10.2544 7.21418 10.2166 7.15604 10.1669L7.41591 9.8628C7.43421 9.87844 7.4556 9.89049 7.47891 9.89814L7.35419 10.2782ZM7.15604 10.1669C7.09789 10.1172 7.05007 10.0565 7.01544 9.98832L7.37212 9.80727C7.38278 9.82826 7.39761 9.84716 7.41591 9.8628L7.15604 10.1669ZM7.01544 9.98832C6.98081 9.92009 6.96008 9.84568 6.95453 9.76935L7.35348 9.74035C7.35517 9.76355 7.36147 9.78628 7.37212 9.80727L7.01544 9.98832ZM6.95453 9.76935C6.94899 9.69301 6.95874 9.61639 6.98319 9.54387L7.36222 9.67166C7.35475 9.69383 7.3518 9.71716 7.35348 9.74035L6.95453 9.76935ZM6.98323 9.54375L8.52169 4.99018L8.90064 5.11821L7.36218 9.67178L6.98323 9.54375ZM8.52167 4.99023C8.56085 4.87418 8.63594 4.77377 8.73575 4.70294L8.96724 5.02915C8.93572 5.05152 8.91261 5.08278 8.90066 5.11817L8.52167 4.99023ZM8.73575 4.70294C8.83553 4.63214 8.95507 4.59437 9.07738 4.59464L9.07649 4.99464C9.03702 4.99455 8.99879 5.00676 8.96724 5.02915L8.73575 4.70294ZM9.07693 4.59464H9.84616V4.99464H9.07693V4.59464ZM9.84612 4.59464C9.96822 4.59461 10.0875 4.63249 10.187 4.70328L9.95524 5.02926C9.92376 5.00688 9.88561 4.99463 9.84621 4.99464L9.84612 4.59464ZM10.187 4.70328C10.2866 4.77409 10.3615 4.87437 10.4007 4.99023L10.0217 5.11817C10.0097 5.08284 9.98668 5.05162 9.95524 5.02926L10.187 4.70328ZM10.4006 4.99018L11.9391 9.54375L11.5601 9.67178L10.0217 5.11821L10.4006 4.99018ZM11.9391 9.54387C11.9636 9.61639 11.9733 9.69301 11.9678 9.76935L11.5688 9.74035C11.5705 9.71716 11.5676 9.69383 11.5601 9.67166L11.9391 9.54387ZM11.9678 9.76935C11.9622 9.84568 11.9415 9.92009 11.9069 9.98832L11.5502 9.80727C11.5609 9.78628 11.5672 9.76355 11.5688 9.74035L11.9678 9.76935ZM11.9069 9.98832C11.8723 10.0565 11.8244 10.1172 11.7663 10.1669L11.5064 9.8628C11.5247 9.84716 11.5395 9.82826 11.5502 9.80727L11.9069 9.98832ZM11.7663 10.1669C11.7081 10.2166 11.6408 10.2544 11.5681 10.2782L11.4434 9.89814C11.4667 9.89049 11.4881 9.87844 11.5064 9.8628L11.7663 10.1669ZM11.5681 10.2782C11.4955 10.302 11.4189 10.3115 11.3426 10.3061L11.3708 9.90711C11.3954 9.90886 11.4201 9.90579 11.4434 9.89814L11.5681 10.2782ZM11.3426 10.3061C11.2663 10.3007 11.1918 10.2806 11.1232 10.2467L11.3004 9.88807C11.3223 9.89887 11.3462 9.90537 11.3708 9.90711L11.3426 10.3061ZM11.1232 10.2467C11.0547 10.2128 10.9934 10.1658 10.9429 10.1084L11.2435 9.84446C11.2592 9.8624 11.2785 9.87726 11.3004 9.88807L11.1232 10.2467ZM10.9429 10.1084C10.8924 10.0509 10.8538 9.984 10.8293 9.91148L11.2084 9.78369C11.2158 9.80586 11.2277 9.82653 11.2435 9.84446L10.9429 10.1084ZM11.0189 9.64759H11.0196V10.0476H11.0189V9.64759ZM9.56886 5.75357H9.35424V5.35357H9.56886V5.75357ZM9.54371 5.61762L9.03063 7.13547L8.6517 7.00738L9.16477 5.48953L9.54371 5.61762ZM8.84117 6.87143H10.0819V7.27143H8.84117V6.87143ZM9.89246 7.13547L9.37939 5.61762L9.75832 5.48953L10.2714 7.00738L9.89246 7.13547ZM4.46155 4.97411H5.6154V5.37411H4.46155V4.97411ZM5.4154 5.17411V4.03571H5.8154V5.17411H5.4154ZM5.4154 4.03571C5.4154 3.88115 5.47766 3.73348 5.58758 3.62502L5.86851 3.90976C5.83418 3.94363 5.8154 3.98899 5.8154 4.03571H5.4154ZM5.58758 3.62502C5.69742 3.51665 5.84583 3.45625 6.00001 3.45625V3.85625C5.95019 3.85625 5.90294 3.8758 5.86851 3.90976L5.58758 3.62502ZM6.00001 3.45625C6.1542 3.45625 6.30261 3.51665 6.41244 3.62502L6.13151 3.90976C6.09709 3.8758 6.04984 3.85625 6.00001 3.85625V3.45625ZM6.41244 3.62502C6.52237 3.73348 6.58463 3.88115 6.58463 4.03571H6.18463C6.18463 3.98899 6.16584 3.94363 6.13151 3.90976L6.41244 3.62502ZM6.58463 4.03571V5.17411H6.18463V4.03571H6.58463ZM6.38463 4.97411H7.53847V5.37411H6.38463V4.97411ZM7.53847 4.97411C7.69266 4.97411 7.84107 5.03451 7.9509 5.14288L7.66997 5.42762C7.63555 5.39366 7.5883 5.37411 7.53847 5.37411V4.97411ZM7.9509 5.14288C8.06083 5.25134 8.12309 5.39901 8.12309 5.55357H7.72309C7.72309 5.50685 7.7043 5.46149 7.66997 5.42762L7.9509 5.14288ZM8.12309 5.55357C8.12309 5.70813 8.06083 5.85581 7.9509 5.96426L7.66997 5.67952C7.7043 5.64565 7.72309 5.60029 7.72309 5.55357H8.12309ZM7.9509 5.96426C7.84107 6.07263 7.69266 6.13304 7.53847 6.13304V5.73304C7.5883 5.73304 7.63555 5.71348 7.66997 5.67952L7.9509 5.96426ZM7.53847 6.13304H6.38463V5.73304H7.53847V6.13304ZM6.58463 5.93304V7.07143H6.18463V5.93304H6.58463ZM6.58463 7.07143C6.58463 7.22599 6.52237 7.37366 6.41244 7.48212L6.13151 7.19738C6.16584 7.16351 6.18463 7.11815 6.18463 7.07143H6.58463ZM6.41244 7.48212C6.3026 7.59049 6.1542 7.65089 6.00001 7.65089V7.25089C6.04984 7.25089 6.09709 7.23134 6.13151 7.19738L6.41244 7.48212ZM6.00001 7.65089C5.84583 7.65089 5.69742 7.59049 5.58758 7.48212L5.86851 7.19738C5.90294 7.23134 5.95019 7.25089 6.00001 7.25089V7.65089ZM5.58758 7.48212C5.47766 7.37366 5.4154 7.22599 5.4154 7.07143H5.8154C5.8154 7.11815 5.83418 7.16351 5.86851 7.19738L5.58758 7.48212ZM5.4154 7.07143V5.93304H5.8154V7.07143H5.4154ZM5.6154 6.13304H4.46155V5.73304H5.6154V6.13304ZM4.46155 6.13304C4.30737 6.13304 4.15896 6.07263 4.04912 5.96426L4.33005 5.67952C4.36448 5.71348 4.41173 5.73304 4.46155 5.73304V6.13304ZM4.04912 5.96426C3.9392 5.85581 3.87694 5.70813 3.87694 5.55357H4.27694C4.27694 5.60029 4.29572 5.64565 4.33005 5.67952L4.04912 5.96426ZM3.87694 5.55357C3.87694 5.39901 3.9392 5.25134 4.04912 5.14288L4.33005 5.42762C4.29572 5.46149 4.27694 5.50685 4.27694 5.55357H3.87694ZM4.04912 5.14288C4.15896 5.03451 4.30737 4.97411 4.46155 4.97411V5.37411C4.41173 5.37411 4.36448 5.39366 4.33005 5.42762L4.04912 5.14288ZM1.80492 15.3943C1.85428 15.448 1.8941 15.5097 1.92258 15.5768L1.55438 15.7331C1.54384 15.7082 1.52903 15.6852 1.5105 15.6651L1.80492 15.3943ZM1.92112 15.5734C1.95281 15.6444 1.96923 15.7213 1.96923 15.7991H1.56923C1.56923 15.7776 1.5647 15.7563 1.55584 15.7364L1.92112 15.5734ZM1.96923 15.7991C1.96923 15.8769 1.95281 15.9538 1.92112 16.0248L1.55584 15.8618C1.5647 15.8419 1.56923 15.8206 1.56923 15.7991H1.96923ZM1.92258 16.0214C1.8941 16.0886 1.85428 16.1502 1.80492 16.2039L1.5105 15.9331C1.52903 15.913 1.54384 15.89 1.55438 15.8652L1.92258 16.0214ZM1.79464 16.2143C1.68428 16.318 1.53887 16.3764 1.38753 16.3785L1.38174 15.9786C1.43403 15.9778 1.48364 15.9576 1.52077 15.9228L1.79464 16.2143ZM1.38316 16.3786C1.23069 16.3774 1.08401 16.3186 0.973576 16.2133L1.24954 15.9237C1.28579 15.9583 1.33464 15.9782 1.3861 15.9786L1.38316 16.3786ZM0.964348 16.2039C0.914989 16.1502 0.87517 16.0886 0.846685 16.0214L1.21489 15.8652C1.22543 15.89 1.24024 15.913 1.25876 15.9331L0.964348 16.2039ZM0.848188 16.0249C0.816442 15.9538 0.800001 15.8769 0.800001 15.7991H1.2C1.2 15.8206 1.20453 15.8419 1.21339 15.8617L0.848188 16.0249ZM0.800001 15.7991C0.800001 15.7213 0.816442 15.6444 0.848188 15.5733L1.21339 15.7365C1.20453 15.7563 1.2 15.7776 1.2 15.7991H0.800001ZM0.846685 15.5768C0.87517 15.5097 0.914989 15.448 0.964348 15.3943L1.25876 15.6651C1.24024 15.6852 1.22543 15.7082 1.21489 15.7331L0.846685 15.5768ZM0.976921 15.3818C1.08838 15.2803 1.23397 15.2244 1.38463 15.2244V15.6244C1.33289 15.6244 1.28349 15.6436 1.24619 15.6776L0.976921 15.3818ZM1.38463 15.2244C1.5353 15.2244 1.68089 15.2803 1.79235 15.3818L1.52308 15.6776C1.48577 15.6436 1.43638 15.6244 1.38463 15.6244V15.2244Z" fill="black" mask="url(#path-1-outside-1_7_148)"/>
<defs>
<linearGradient id="paint0_linear_7_148" x1="21" y1="13.1429" x2="1" y2="13.1429" gradientUnits="userSpaceOnUse">
<stop/>
</linearGradient>
<linearGradient id="paint1_linear_7_148" x1="-259" y1="948.143" x2="0.999986" y2="948.143" gradientUnits="userSpaceOnUse">
<stop/>
</linearGradient>
<linearGradient id="paint2_linear_7_148" x1="-259" y1="1142.43" x2="0.999986" y2="1142.43" gradientUnits="userSpaceOnUse">
<stop/>
</linearGradient>
<linearGradient id="paint3_linear_7_148" x1="-259" y1="1336.71" x2="-739" y2="1336.71" gradientUnits="userSpaceOnUse">
<stop/>
</linearGradient>
<linearGradient id="paint4_linear_7_148" x1="-259" y1="559.571" x2="-459" y2="559.571" gradientUnits="userSpaceOnUse">
<stop/>
</linearGradient>
<linearGradient id="paint5_linear_7_148" x1="-99" y1="778.143" x2="-1139" y2="778.143" gradientUnits="userSpaceOnUse">
<stop/>
</linearGradient>
<linearGradient id="paint6_linear_7_148" x1="-579" y1="413.857" x2="-819" y2="413.857" gradientUnits="userSpaceOnUse">
<stop/>
</linearGradient>
<linearGradient id="paint7_linear_7_148" x1="-779" y1="292.429" x2="0.999955" y2="292.429" gradientUnits="userSpaceOnUse">
<stop/>
</linearGradient>
<linearGradient id="paint8_linear_7_148" x1="-1099" y1="948.289" x2="-1139" y2="948.289" gradientUnits="userSpaceOnUse">
<stop/>
</linearGradient>
</defs>
</svg>
