<svg width="22" height="25" viewBox="0 0 22 25" fill="none" xmlns="http://www.w3.org/2000/svg">
<mask id="path-1-outside-1_7_152" maskUnits="userSpaceOnUse" x="0" y="0" width="22" height="25" fill="black">
<rect fill="white" width="22" height="25"/>
<path d="M20.6687 1.00021C20.7114 0.998674 20.7539 1.00563 20.7938 1.02067C20.8337 1.03571 20.8701 1.05852 20.901 1.08777C20.9319 1.11702 20.9565 1.15211 20.9735 1.19097C20.9905 1.22983 20.9995 1.27168 21 1.31405V20.5166C21.0002 20.6054 20.9659 20.6908 20.9041 20.755C20.8424 20.8192 20.758 20.8572 20.6687 20.861H19.1319V22.3871C19.128 22.4758 19.0898 22.5596 19.0252 22.6209C18.9605 22.6822 18.8745 22.7163 18.7851 22.7161H17.2088V24.2574C17.2111 24.2984 17.2048 24.3395 17.1902 24.378C17.1757 24.4165 17.1533 24.4516 17.1245 24.4811C17.0956 24.5106 17.0609 24.5339 17.0226 24.5494C16.9842 24.5649 16.943 24.5723 16.9017 24.5712H1.33128C1.28864 24.5728 1.24612 24.5658 1.20623 24.5508C1.16634 24.5357 1.12988 24.5129 1.09901 24.4837C1.06814 24.4544 1.04347 24.4193 1.02647 24.3805C1.00946 24.3416 1.00046 24.2997 1 24.2574V5.05478C0.999767 4.96602 1.03412 4.8806 1.09587 4.81642C1.15762 4.75224 1.24198 4.71427 1.33128 4.71046H2.86813V3.18431C2.87197 3.09563 2.91021 3.01186 2.97484 2.95054C3.03947 2.88922 3.12548 2.8551 3.21486 2.85533H4.79121V1.31405C4.78893 1.27299 4.79525 1.23191 4.80976 1.1934C4.82427 1.15489 4.84666 1.11978 4.87552 1.09029C4.90438 1.06081 4.93908 1.03758 4.97743 1.02207C5.01578 1.00657 5.05695 0.999122 5.09834 1.00021H20.6687ZM20.3407 1.65496H5.45055V20.2062H20.3407V1.65496ZM4.79121 3.51008H3.52747V22.0613H18.4725V20.861H5.09834C4.91625 20.861 4.79121 20.6973 4.79121 20.5166V3.51008ZM12.8778 4.49232C12.9635 4.49481 13.0449 4.53039 13.1046 4.59149C13.1644 4.65259 13.1978 4.73441 13.1978 4.81959V5.39601C13.6494 5.47409 14.0551 5.71753 14.3348 6.07824C14.6144 6.43895 14.7476 6.89069 14.7082 7.34422C14.6687 7.79775 14.4593 8.22008 14.1215 8.52777C13.7837 8.83546 13.3419 9.00614 12.8835 9.00609C12.5729 9.00651 12.2751 9.12933 12.0556 9.34759C11.8362 9.56584 11.7129 9.86168 11.7129 10.1701C11.7129 10.4786 11.8362 10.7744 12.0556 10.9927C12.2751 11.2109 12.5729 11.3337 12.8835 11.3342V11.3344C13.1943 11.334 13.4922 11.2113 13.712 10.9931C13.9317 10.7748 14.0553 10.479 14.0557 10.1703C14.0557 10.0835 14.0904 10.0002 14.1522 9.93885C14.2141 9.87745 14.2979 9.84296 14.3853 9.84296C14.4728 9.84296 14.5566 9.87745 14.6185 9.93885C14.6803 10.0002 14.715 10.0835 14.715 10.1703C14.7144 10.5983 14.562 11.0124 14.2845 11.34C14.0071 11.6675 13.6223 11.8876 13.1978 11.9615V12.6766C13.1978 12.7634 13.1631 12.8467 13.1012 12.9081C13.0394 12.9695 12.9556 13.004 12.8681 13.004C12.7807 13.004 12.6968 12.9695 12.635 12.9081C12.5732 12.8467 12.5385 12.7634 12.5385 12.6766V11.9561C12.0908 11.8709 11.6913 11.623 11.4179 11.2609C11.1445 10.8988 11.0168 10.4485 11.06 9.99788C11.1031 9.54732 11.3139 9.12891 11.6511 8.82442C11.9883 8.51993 12.4277 8.35125 12.8835 8.35134C13.1153 8.35134 13.342 8.28306 13.5347 8.15514C13.7275 8.02722 13.8778 7.8454 13.9665 7.63268C14.0552 7.41997 14.0784 7.1859 14.0331 6.96009C13.9879 6.73428 13.8762 6.52687 13.7122 6.36409C13.5483 6.20131 13.3394 6.09047 13.112 6.04559C12.8846 6.00071 12.6489 6.02381 12.4347 6.11196C12.2205 6.20011 12.0374 6.34936 11.9087 6.54083C11.7799 6.7323 11.7112 6.95738 11.7113 7.18762C11.7113 7.27445 11.6765 7.35771 11.6147 7.41911C11.5529 7.4805 11.469 7.515 11.3816 7.515C11.2942 7.515 11.2103 7.4805 11.1485 7.41911C11.0867 7.35771 11.0519 7.27445 11.0519 7.18762C11.0525 6.76484 11.2011 6.35541 11.4723 6.02953C11.7435 5.70364 12.1204 5.48159 12.5385 5.40144V4.81959C12.5385 4.77578 12.5473 4.73243 12.5645 4.69208C12.5817 4.65174 12.6068 4.61522 12.6384 4.58471C12.6701 4.55419 12.7076 4.53029 12.7487 4.51442C12.7898 4.49855 12.8337 4.49103 12.8778 4.49232ZM2.86813 5.36521H1.65934V23.9165H16.5494V22.7161H3.21486C3.12548 22.7163 3.03947 22.6822 2.97484 22.6209C2.91021 22.5596 2.87197 22.4758 2.86813 22.3871V5.36521ZM18.7851 14.5863C18.8726 14.5863 18.9564 14.6208 19.0182 14.6822C19.0801 14.7436 19.1148 14.8268 19.1148 14.9137C19.1148 15.0005 19.0801 15.0837 19.0182 15.1451C18.9564 15.2065 18.8726 15.241 18.7851 15.241H14.5158C14.4284 15.241 14.3446 15.2065 14.2827 15.1451C14.2209 15.0837 14.1862 15.0005 14.1862 14.9137C14.1862 14.8268 14.2209 14.7436 14.2827 14.6822C14.3446 14.6208 14.4284 14.5863 14.5158 14.5863H18.7851ZM18.7851 16.4414C18.8726 16.4414 18.9564 16.4759 19.0182 16.5373C19.0801 16.5987 19.1148 16.682 19.1148 16.7688C19.1148 16.8556 19.0801 16.9389 19.0182 17.0003C18.9564 17.0617 18.8726 17.0962 18.7851 17.0962H6.98182C6.89439 17.0962 6.81053 17.0617 6.74871 17.0003C6.68688 16.9389 6.65215 16.8556 6.65215 16.7688C6.65215 16.682 6.68688 16.5987 6.74871 16.5373C6.81053 16.4759 6.89439 16.4414 6.98182 16.4414H18.7851ZM18.7851 18.2965C18.8726 18.2965 18.9564 18.331 19.0182 18.3924C19.0801 18.4538 19.1148 18.5371 19.1148 18.6239C19.1148 18.7107 19.0801 18.794 19.0182 18.8554C18.9564 18.9168 18.8726 18.9513 18.7851 18.9513H6.98182C6.89439 18.9513 6.81053 18.9168 6.74871 18.8554C6.68688 18.794 6.65215 18.7107 6.65215 18.6239C6.65215 18.5371 6.68688 18.4538 6.74871 18.3924C6.81053 18.331 6.89439 18.2965 6.98182 18.2965H18.7851Z"/>
</mask>
<path d="M20.6687 1.00021C20.7114 0.998674 20.7539 1.00563 20.7938 1.02067C20.8337 1.03571 20.8701 1.05852 20.901 1.08777C20.9319 1.11702 20.9565 1.15211 20.9735 1.19097C20.9905 1.22983 20.9995 1.27168 21 1.31405V20.5166C21.0002 20.6054 20.9659 20.6908 20.9041 20.755C20.8424 20.8192 20.758 20.8572 20.6687 20.861H19.1319V22.3871C19.128 22.4758 19.0898 22.5596 19.0252 22.6209C18.9605 22.6822 18.8745 22.7163 18.7851 22.7161H17.2088V24.2574C17.2111 24.2984 17.2048 24.3395 17.1902 24.378C17.1757 24.4165 17.1533 24.4516 17.1245 24.4811C17.0956 24.5106 17.0609 24.5339 17.0226 24.5494C16.9842 24.5649 16.943 24.5723 16.9017 24.5712H1.33128C1.28864 24.5728 1.24612 24.5658 1.20623 24.5508C1.16634 24.5357 1.12988 24.5129 1.09901 24.4837C1.06814 24.4544 1.04347 24.4193 1.02647 24.3805C1.00946 24.3416 1.00046 24.2997 1 24.2574V5.05478C0.999767 4.96602 1.03412 4.8806 1.09587 4.81642C1.15762 4.75224 1.24198 4.71427 1.33128 4.71046H2.86813V3.18431C2.87197 3.09563 2.91021 3.01186 2.97484 2.95054C3.03947 2.88922 3.12548 2.8551 3.21486 2.85533H4.79121V1.31405C4.78893 1.27299 4.79525 1.23191 4.80976 1.1934C4.82427 1.15489 4.84666 1.11978 4.87552 1.09029C4.90438 1.06081 4.93908 1.03758 4.97743 1.02207C5.01578 1.00657 5.05695 0.999122 5.09834 1.00021H20.6687ZM20.3407 1.65496H5.45055V20.2062H20.3407V1.65496ZM4.79121 3.51008H3.52747V22.0613H18.4725V20.861H5.09834C4.91625 20.861 4.79121 20.6973 4.79121 20.5166V3.51008ZM12.8778 4.49232C12.9635 4.49481 13.0449 4.53039 13.1046 4.59149C13.1644 4.65259 13.1978 4.73441 13.1978 4.81959V5.39601C13.6494 5.47409 14.0551 5.71753 14.3348 6.07824C14.6144 6.43895 14.7476 6.89069 14.7082 7.34422C14.6687 7.79775 14.4593 8.22008 14.1215 8.52777C13.7837 8.83546 13.3419 9.00614 12.8835 9.00609C12.5729 9.00651 12.2751 9.12933 12.0556 9.34759C11.8362 9.56584 11.7129 9.86168 11.7129 10.1701C11.7129 10.4786 11.8362 10.7744 12.0556 10.9927C12.2751 11.2109 12.5729 11.3337 12.8835 11.3342V11.3344C13.1943 11.334 13.4922 11.2113 13.712 10.9931C13.9317 10.7748 14.0553 10.479 14.0557 10.1703C14.0557 10.0835 14.0904 10.0002 14.1522 9.93885C14.2141 9.87745 14.2979 9.84296 14.3853 9.84296C14.4728 9.84296 14.5566 9.87745 14.6185 9.93885C14.6803 10.0002 14.715 10.0835 14.715 10.1703C14.7144 10.5983 14.562 11.0124 14.2845 11.34C14.0071 11.6675 13.6223 11.8876 13.1978 11.9615V12.6766C13.1978 12.7634 13.1631 12.8467 13.1012 12.9081C13.0394 12.9695 12.9556 13.004 12.8681 13.004C12.7807 13.004 12.6968 12.9695 12.635 12.9081C12.5732 12.8467 12.5385 12.7634 12.5385 12.6766V11.9561C12.0908 11.8709 11.6913 11.623 11.4179 11.2609C11.1445 10.8988 11.0168 10.4485 11.06 9.99788C11.1031 9.54732 11.3139 9.12891 11.6511 8.82442C11.9883 8.51993 12.4277 8.35125 12.8835 8.35134C13.1153 8.35134 13.342 8.28306 13.5347 8.15514C13.7275 8.02722 13.8778 7.8454 13.9665 7.63268C14.0552 7.41997 14.0784 7.1859 14.0331 6.96009C13.9879 6.73428 13.8762 6.52687 13.7122 6.36409C13.5483 6.20131 13.3394 6.09047 13.112 6.04559C12.8846 6.00071 12.6489 6.02381 12.4347 6.11196C12.2205 6.20011 12.0374 6.34936 11.9087 6.54083C11.7799 6.7323 11.7112 6.95738 11.7113 7.18762C11.7113 7.27445 11.6765 7.35771 11.6147 7.41911C11.5529 7.4805 11.469 7.515 11.3816 7.515C11.2942 7.515 11.2103 7.4805 11.1485 7.41911C11.0867 7.35771 11.0519 7.27445 11.0519 7.18762C11.0525 6.76484 11.2011 6.35541 11.4723 6.02953C11.7435 5.70364 12.1204 5.48159 12.5385 5.40144V4.81959C12.5385 4.77578 12.5473 4.73243 12.5645 4.69208C12.5817 4.65174 12.6068 4.61522 12.6384 4.58471C12.6701 4.55419 12.7076 4.53029 12.7487 4.51442C12.7898 4.49855 12.8337 4.49103 12.8778 4.49232ZM2.86813 5.36521H1.65934V23.9165H16.5494V22.7161H3.21486C3.12548 22.7163 3.03947 22.6822 2.97484 22.6209C2.91021 22.5596 2.87197 22.4758 2.86813 22.3871V5.36521ZM18.7851 14.5863C18.8726 14.5863 18.9564 14.6208 19.0182 14.6822C19.0801 14.7436 19.1148 14.8268 19.1148 14.9137C19.1148 15.0005 19.0801 15.0837 19.0182 15.1451C18.9564 15.2065 18.8726 15.241 18.7851 15.241H14.5158C14.4284 15.241 14.3446 15.2065 14.2827 15.1451C14.2209 15.0837 14.1862 15.0005 14.1862 14.9137C14.1862 14.8268 14.2209 14.7436 14.2827 14.6822C14.3446 14.6208 14.4284 14.5863 14.5158 14.5863H18.7851ZM18.7851 16.4414C18.8726 16.4414 18.9564 16.4759 19.0182 16.5373C19.0801 16.5987 19.1148 16.682 19.1148 16.7688C19.1148 16.8556 19.0801 16.9389 19.0182 17.0003C18.9564 17.0617 18.8726 17.0962 18.7851 17.0962H6.98182C6.89439 17.0962 6.81053 17.0617 6.74871 17.0003C6.68688 16.9389 6.65215 16.8556 6.65215 16.7688C6.65215 16.682 6.68688 16.5987 6.74871 16.5373C6.81053 16.4759 6.89439 16.4414 6.98182 16.4414H18.7851ZM18.7851 18.2965C18.8726 18.2965 18.9564 18.331 19.0182 18.3924C19.0801 18.4538 19.1148 18.5371 19.1148 18.6239C19.1148 18.7107 19.0801 18.794 19.0182 18.8554C18.9564 18.9168 18.8726 18.9513 18.7851 18.9513H6.98182C6.89439 18.9513 6.81053 18.9168 6.74871 18.8554C6.68688 18.794 6.65215 18.7107 6.65215 18.6239C6.65215 18.5371 6.68688 18.4538 6.74871 18.3924C6.81053 18.331 6.89439 18.2965 6.98182 18.2965H18.7851Z" fill="black"/>
<path d="M20.6687 1.00021C20.7114 0.998674 20.7539 1.00563 20.7938 1.02067C20.8337 1.03571 20.8701 1.05852 20.901 1.08777C20.9319 1.11702 20.9565 1.15211 20.9735 1.19097C20.9905 1.22983 20.9995 1.27168 21 1.31405V20.5166C21.0002 20.6054 20.9659 20.6908 20.9041 20.755C20.8424 20.8192 20.758 20.8572 20.6687 20.861H19.1319V22.3871C19.128 22.4758 19.0898 22.5596 19.0252 22.6209C18.9605 22.6822 18.8745 22.7163 18.7851 22.7161H17.2088V24.2574C17.2111 24.2984 17.2048 24.3395 17.1902 24.378C17.1757 24.4165 17.1533 24.4516 17.1245 24.4811C17.0956 24.5106 17.0609 24.5339 17.0226 24.5494C16.9842 24.5649 16.943 24.5723 16.9017 24.5712H1.33128C1.28864 24.5728 1.24612 24.5658 1.20623 24.5508C1.16634 24.5357 1.12988 24.5129 1.09901 24.4837C1.06814 24.4544 1.04347 24.4193 1.02647 24.3805C1.00946 24.3416 1.00046 24.2997 1 24.2574V5.05478C0.999767 4.96602 1.03412 4.8806 1.09587 4.81642C1.15762 4.75224 1.24198 4.71427 1.33128 4.71046H2.86813V3.18431C2.87197 3.09563 2.91021 3.01186 2.97484 2.95054C3.03947 2.88922 3.12548 2.8551 3.21486 2.85533H4.79121V1.31405C4.78893 1.27299 4.79525 1.23191 4.80976 1.1934C4.82427 1.15489 4.84666 1.11978 4.87552 1.09029C4.90438 1.06081 4.93908 1.03758 4.97743 1.02207C5.01578 1.00657 5.05695 0.999122 5.09834 1.00021H20.6687ZM20.3407 1.65496H5.45055V20.2062H20.3407V1.65496ZM4.79121 3.51008H3.52747V22.0613H18.4725V20.861H5.09834C4.91625 20.861 4.79121 20.6973 4.79121 20.5166V3.51008ZM12.8778 4.49232C12.9635 4.49481 13.0449 4.53039 13.1046 4.59149C13.1644 4.65259 13.1978 4.73441 13.1978 4.81959V5.39601C13.6494 5.47409 14.0551 5.71753 14.3348 6.07824C14.6144 6.43895 14.7476 6.89069 14.7082 7.34422C14.6687 7.79775 14.4593 8.22008 14.1215 8.52777C13.7837 8.83546 13.3419 9.00614 12.8835 9.00609C12.5729 9.00651 12.2751 9.12933 12.0556 9.34759C11.8362 9.56584 11.7129 9.86168 11.7129 10.1701C11.7129 10.4786 11.8362 10.7744 12.0556 10.9927C12.2751 11.2109 12.5729 11.3337 12.8835 11.3342V11.3344C13.1943 11.334 13.4922 11.2113 13.712 10.9931C13.9317 10.7748 14.0553 10.479 14.0557 10.1703C14.0557 10.0835 14.0904 10.0002 14.1522 9.93885C14.2141 9.87745 14.2979 9.84296 14.3853 9.84296C14.4728 9.84296 14.5566 9.87745 14.6185 9.93885C14.6803 10.0002 14.715 10.0835 14.715 10.1703C14.7144 10.5983 14.562 11.0124 14.2845 11.34C14.0071 11.6675 13.6223 11.8876 13.1978 11.9615V12.6766C13.1978 12.7634 13.1631 12.8467 13.1012 12.9081C13.0394 12.9695 12.9556 13.004 12.8681 13.004C12.7807 13.004 12.6968 12.9695 12.635 12.9081C12.5732 12.8467 12.5385 12.7634 12.5385 12.6766V11.9561C12.0908 11.8709 11.6913 11.623 11.4179 11.2609C11.1445 10.8988 11.0168 10.4485 11.06 9.99788C11.1031 9.54732 11.3139 9.12891 11.6511 8.82442C11.9883 8.51993 12.4277 8.35125 12.8835 8.35134C13.1153 8.35134 13.342 8.28306 13.5347 8.15514C13.7275 8.02722 13.8778 7.8454 13.9665 7.63268C14.0552 7.41997 14.0784 7.1859 14.0331 6.96009C13.9879 6.73428 13.8762 6.52687 13.7122 6.36409C13.5483 6.20131 13.3394 6.09047 13.112 6.04559C12.8846 6.00071 12.6489 6.02381 12.4347 6.11196C12.2205 6.20011 12.0374 6.34936 11.9087 6.54083C11.7799 6.7323 11.7112 6.95738 11.7113 7.18762C11.7113 7.27445 11.6765 7.35771 11.6147 7.41911C11.5529 7.4805 11.469 7.515 11.3816 7.515C11.2942 7.515 11.2103 7.4805 11.1485 7.41911C11.0867 7.35771 11.0519 7.27445 11.0519 7.18762C11.0525 6.76484 11.2011 6.35541 11.4723 6.02953C11.7435 5.70364 12.1204 5.48159 12.5385 5.40144V4.81959C12.5385 4.77578 12.5473 4.73243 12.5645 4.69208C12.5817 4.65174 12.6068 4.61522 12.6384 4.58471C12.6701 4.55419 12.7076 4.53029 12.7487 4.51442C12.7898 4.49855 12.8337 4.49103 12.8778 4.49232ZM2.86813 5.36521H1.65934V23.9165H16.5494V22.7161H3.21486C3.12548 22.7163 3.03947 22.6822 2.97484 22.6209C2.91021 22.5596 2.87197 22.4758 2.86813 22.3871V5.36521ZM18.7851 14.5863C18.8726 14.5863 18.9564 14.6208 19.0182 14.6822C19.0801 14.7436 19.1148 14.8268 19.1148 14.9137C19.1148 15.0005 19.0801 15.0837 19.0182 15.1451C18.9564 15.2065 18.8726 15.241 18.7851 15.241H14.5158C14.4284 15.241 14.3446 15.2065 14.2827 15.1451C14.2209 15.0837 14.1862 15.0005 14.1862 14.9137C14.1862 14.8268 14.2209 14.7436 14.2827 14.6822C14.3446 14.6208 14.4284 14.5863 14.5158 14.5863H18.7851ZM18.7851 16.4414C18.8726 16.4414 18.9564 16.4759 19.0182 16.5373C19.0801 16.5987 19.1148 16.682 19.1148 16.7688C19.1148 16.8556 19.0801 16.9389 19.0182 17.0003C18.9564 17.0617 18.8726 17.0962 18.7851 17.0962H6.98182C6.89439 17.0962 6.81053 17.0617 6.74871 17.0003C6.68688 16.9389 6.65215 16.8556 6.65215 16.7688C6.65215 16.682 6.68688 16.5987 6.74871 16.5373C6.81053 16.4759 6.89439 16.4414 6.98182 16.4414H18.7851ZM18.7851 18.2965C18.8726 18.2965 18.9564 18.331 19.0182 18.3924C19.0801 18.4538 19.1148 18.5371 19.1148 18.6239C19.1148 18.7107 19.0801 18.794 19.0182 18.8554C18.9564 18.9168 18.8726 18.9513 18.7851 18.9513H6.98182C6.89439 18.9513 6.81053 18.9168 6.74871 18.8554C6.68688 18.794 6.65215 18.7107 6.65215 18.6239C6.65215 18.5371 6.68688 18.4538 6.74871 18.3924C6.81053 18.331 6.89439 18.2965 6.98182 18.2965H18.7851Z" stroke="black" stroke-width="0.4" mask="url(#path-1-outside-1_7_152)"/>
</svg>
