<svg width="20" height="20" viewBox="0 0 20 20" fill="none" xmlns="http://www.w3.org/2000/svg">
<path d="M10 8.18045C10.8328 8.18045 11.6468 7.94057 12.3392 7.49113C13.0317 7.04169 13.5713 6.40288 13.89 5.65549C14.2087 4.9081 14.2921 4.08569 14.1296 3.29226C13.9672 2.49884 13.5661 1.77003 12.9773 1.198C12.3884 0.625973 11.6382 0.236417 10.8214 0.0785944C10.0047 -0.0792279 9.15807 0.00177223 8.3887 0.311352C7.61933 0.620931 6.96173 1.14519 6.49908 1.81782C6.03642 2.49045 5.78947 3.28126 5.78947 4.09023C5.78947 5.17502 6.23308 6.21539 7.02271 6.98245C7.81233 7.74952 8.8833 8.18045 10 8.18045ZM10 1.02256C10.6246 1.02256 11.2351 1.20247 11.7544 1.53955C12.2737 1.87663 12.6785 2.35574 12.9175 2.91628C13.1565 3.47682 13.2191 4.09363 13.0972 4.6887C12.9754 5.28377 12.6746 5.83038 12.233 6.2594C11.7913 6.68842 11.2286 6.98059 10.6161 7.09895C10.0035 7.21732 9.36856 7.15657 8.79152 6.92438C8.2145 6.6922 7.7213 6.29901 7.37431 5.79453C7.02731 5.29006 6.84211 4.69696 6.84211 4.09023C6.84211 3.27663 7.17481 2.49636 7.76703 1.92106C8.35925 1.34576 9.16247 1.02256 10 1.02256ZM0 19.4286H1.05263V18.9173C1.05263 16.6121 1.9953 14.4013 3.67325 12.7713C5.35121 11.1413 7.62701 10.2256 10 10.2256C12.373 10.2256 14.6488 11.1413 16.3267 12.7713C18.0047 14.4013 18.9474 16.6121 18.9474 18.9173V19.4286H20V18.9173C20 16.3409 18.9464 13.87 17.0711 12.0483C15.1957 10.2265 12.6522 9.20301 10 9.20301C7.34783 9.20301 4.8043 10.2265 2.92893 12.0483C1.05357 13.87 0 16.3409 0 18.9173V19.4286Z" fill="black"/>
</svg>
