<svg width="37" height="37" viewBox="0 0 37 37" fill="none" xmlns="http://www.w3.org/2000/svg">
<path d="M18.5 6.84643e-05C14.8411 5.70577e-05 11.2643 1.08505 8.22196 3.11785C5.17965 5.15065 2.80846 8.03995 1.40824 11.4204C0.00801438 14.8008 -0.358347 18.5205 0.355483 22.1092C1.06931 25.6978 2.83127 28.9942 5.41855 31.5815C7.13643 33.2994 9.17585 34.6621 11.4204 35.5918C13.6649 36.5215 16.0706 37 18.5 37C20.9295 37 23.3351 36.5215 25.5797 35.5918C27.8242 34.6621 29.8636 33.2994 31.5815 31.5815C33.2994 29.8636 34.6621 27.8242 35.5918 25.5797C36.5215 23.3351 37 20.9295 37 18.5C37 16.0706 36.5215 13.6649 35.5918 11.4204C34.6621 9.17585 33.2994 7.13643 31.5815 5.41855C29.8676 3.69529 27.8289 2.32909 25.5835 1.399C23.3381 0.46892 20.9304 -0.00656515 18.5 6.84643e-05ZM18.5 1.62287C27.8061 1.62287 35.3772 9.19397 35.3772 18.5C35.3783 20.7879 34.913 23.0519 34.0097 25.1539C33.1065 27.2559 31.7841 29.1517 30.1235 30.7254V30.4855C30.1235 24.0764 24.9093 18.8621 18.5002 18.8621C12.0911 18.8621 6.87685 24.0764 6.87685 30.4855V30.7257C5.21614 29.152 3.89371 27.2562 2.99036 25.1541C2.08701 23.0521 1.62171 20.7879 1.62287 18.5C1.62287 9.19397 9.19397 1.62287 18.5 1.62287ZM18.5369 5.44834C17.2963 5.44835 16.0835 5.81625 15.052 6.50552C14.0204 7.19478 13.2164 8.17446 12.7417 9.32066C12.2669 10.4669 12.1427 11.7281 12.3847 12.9449C12.6268 14.1617 13.2242 15.2794 14.1015 16.1566C14.9787 17.0339 16.0964 17.6313 17.3132 17.8734C18.53 18.1154 19.7913 17.9912 20.9375 17.5164C22.0837 17.0417 23.0633 16.2377 23.7526 15.2061C24.4419 14.1746 24.8098 12.9618 24.8098 11.7212C24.8078 10.0581 24.1463 8.46374 22.9703 7.28778C21.7944 6.11182 20.2 5.45031 18.5369 5.44834ZM18.3436 7.07527C18.97 7.04919 19.5952 7.15005 20.1816 7.37178C20.768 7.5935 21.3035 7.93151 21.7559 8.3655C22.2083 8.79948 22.5683 9.32046 22.8143 9.89713C23.0602 10.4738 23.187 11.0943 23.187 11.7212C23.1856 12.954 22.6952 14.136 21.8235 15.0077C20.9517 15.8795 19.7698 16.3698 18.5369 16.3712C17.3204 16.3712 16.1524 15.8944 15.2833 15.0432C14.4142 14.192 13.9133 13.0341 13.888 11.8179C13.8627 10.6017 14.3151 9.42397 15.148 8.53736C15.9809 7.65076 17.1282 7.12587 18.3436 7.07527ZM18.7921 20.4891C21.3927 20.565 23.8614 21.6515 25.6741 23.5178C27.4867 25.3842 28.5007 27.8835 28.5007 30.4853V32.0862C25.6046 34.2238 22.0997 35.3772 18.5002 35.3772C14.9006 35.3772 11.3958 34.2238 8.49965 32.0862V30.4853C8.49965 29.1474 8.76809 27.8232 9.28908 26.5909C9.81006 25.3587 10.573 24.2435 11.5327 23.3114C12.4924 22.3793 13.6294 21.6493 14.8763 21.1645C16.1233 20.6797 17.4548 20.45 18.7921 20.4891Z" fill="black"/>
</svg>
