<svg width="26" height="25" viewBox="0 0 26 25" fill="none" xmlns="http://www.w3.org/2000/svg">
<path d="M9.125 0.53125C5.86812 0.53125 3.21875 3.18147 3.21875 6.4375C3.21875 8.47122 4.25288 10.269 5.82251 11.3319C2.80832 12.621 0.6875 15.6161 0.6875 19.0938H2.375C2.375 15.3728 5.40406 12.3438 9.125 12.3438C10.34 12.3438 11.4799 12.6648 12.467 13.2386C12.813 12.7745 13.2002 12.3444 13.6305 11.9647C13.2482 11.7214 12.8382 11.5185 12.416 11.3385C13.9917 10.2766 15.0312 8.47595 15.0312 6.4375C15.0312 3.18147 12.3819 0.53125 9.125 0.53125ZM9.125 2.21875C11.4512 2.21875 13.3438 4.11128 13.3438 6.4375C13.3438 8.76372 11.4512 10.6562 9.125 10.6562C6.79878 10.6562 4.90625 8.76372 4.90625 6.4375C4.90625 4.11128 6.79878 2.21875 9.125 2.21875ZM19.25 11.5C15.5375 11.5 12.5 14.5375 12.5 18.25C12.5 21.9625 15.5375 25 19.25 25C22.9625 25 26 21.9625 26 18.25C26 14.5375 22.9625 11.5 19.25 11.5ZM19.25 13.1875C22.0344 13.1875 24.3125 15.4656 24.3125 18.25C24.3125 21.0344 22.0344 23.3125 19.25 23.3125C16.4656 23.3125 14.1875 21.0344 14.1875 18.25C14.1875 15.4656 16.4656 13.1875 19.25 13.1875ZM21.7812 15.9725L18.9962 18.7559L17.0566 16.8163L15.875 17.9962L18.9962 21.1191L22.9628 17.1525L21.7812 15.9725Z" fill="black"/>
</svg>
