<svg width="23" height="21" viewBox="0 0 23 21" fill="none" xmlns="http://www.w3.org/2000/svg">
<path d="M20.6702 16.2826H14.5216C14.5219 16.2902 14.5222 16.2979 14.5225 16.3057C14.5351 16.6139 14.5709 17.0158 14.6611 17.4104C14.7527 17.8118 14.8914 18.1644 15.0835 18.4072C15.2609 18.6314 15.4793 18.7609 15.7942 18.7609C16.0704 18.7609 16.2942 18.9847 16.2942 19.2609C16.2942 19.537 16.0704 19.7609 15.7942 19.7609H7.81534C7.53919 19.7609 7.31534 19.537 7.31534 19.2609C7.31534 18.9847 7.53919 18.7609 7.81534 18.7609C8.13024 18.7609 8.34864 18.6314 8.52607 18.4072C8.71812 18.1644 8.85681 17.8118 8.94848 17.4104C9.03861 17.0158 9.07449 16.6139 9.08706 16.3057C9.08738 16.2979 9.08768 16.2902 9.08797 16.2826H2.93936C2.45714 16.2826 1.99278 16.0948 1.64892 15.7575C1.30472 15.4199 1.10954 14.96 1.10954 14.4783V12.3043V2.30435C1.10954 1.82265 1.30472 1.36268 1.64892 1.02508V1.02508C1.99278 0.687799 2.45715 0.5 2.93936 0.5H20.6702C21.1524 0.5 21.6168 0.687798 21.9606 1.02508C22.3048 1.36268 22.5 1.82265 22.5 2.30435V12.3043V14.4783C22.5 14.96 22.3048 15.4199 21.9606 15.7575C21.6168 16.0948 21.1524 16.2826 20.6702 16.2826Z" stroke="black" stroke-miterlimit="10" stroke-linecap="round" stroke-linejoin="round"/>
<path d="M11.8048 14.9782C11.293 14.9782 10.8615 14.5688 10.8615 14.0435C10.8615 13.5181 11.293 13.1087 11.8048 13.1087C12.3166 13.1087 12.748 13.5181 12.748 14.0435C12.748 14.5688 12.3166 14.9782 11.8048 14.9782Z" stroke="black" stroke-miterlimit="10" stroke-linecap="round" stroke-linejoin="round"/>
<mask id="path-3-outside-1_22_60" maskUnits="userSpaceOnUse" x="5.35059" y="4.78259" width="11" height="7" fill="black">
<rect fill="white" x="5.35059" y="4.78259" width="11" height="7"/>
<path d="M6.92844 5.78259V7.95651V5.78259ZM15.3506 6.46955V8.72346C15.3505 8.88491 15.3046 9.04314 15.218 9.18044C15.1314 9.31774 15.0076 9.42869 14.8603 9.50085L13.4835 10.1765C12.9621 10.4323 12.387 10.5655 11.804 10.5655C11.2209 10.5655 10.6459 10.4323 10.1244 10.1765L8.74851 9.50085C8.60127 9.42869 8.47743 9.31774 8.39084 9.18044C8.30425 9.04314 8.25834 8.88491 8.25825 8.72346V6.3739"/>
</mask>
<path d="M5.92844 5.78259C5.92844 5.23031 6.37616 4.78259 6.92844 4.78259C7.48073 4.78259 7.92844 5.23031 7.92844 5.78259H5.92844ZM7.92844 7.95651C7.92844 8.50879 7.48073 8.95651 6.92844 8.95651C6.37616 8.95651 5.92844 8.50879 5.92844 7.95651H7.92844ZM14.3506 6.46955C14.3506 5.91726 14.7983 5.46955 15.3506 5.46955C15.9029 5.46955 16.3506 5.91726 16.3506 6.46955H14.3506ZM15.3506 8.72346H16.3506L16.3506 8.72401L15.3506 8.72346ZM14.8603 9.50085L14.4198 8.60313L14.4202 8.60291L14.8603 9.50085ZM13.4835 10.1765L13.9241 11.0742L13.924 11.0743L13.4835 10.1765ZM11.804 10.5655V9.56553V10.5655ZM10.1244 10.1765L9.68397 11.0743L9.68364 11.0741L10.1244 10.1765ZM8.74851 9.50085L9.18862 8.60291L9.18929 8.60324L8.74851 9.50085ZM8.25825 8.72346L7.25825 8.72401V8.72346H8.25825ZM7.25825 6.3739C7.25825 5.82161 7.70597 5.3739 8.25825 5.3739C8.81054 5.3739 9.25825 5.82161 9.25825 6.3739H7.25825ZM7.92844 5.78259V7.95651H5.92844V5.78259H7.92844ZM5.92844 7.95651V5.78259H7.92844V7.95651H5.92844ZM16.3506 6.46955V8.72346H14.3506V6.46955H16.3506ZM16.3506 8.72401C16.3504 9.07515 16.2505 9.41795 16.0638 9.71387L14.3722 8.64701C14.3587 8.66833 14.3506 8.69467 14.3506 8.72292L16.3506 8.72401ZM16.0638 9.71387C15.8773 10.0096 15.6123 10.2459 15.3004 10.3988L14.4202 8.60291C14.4028 8.61143 14.3855 8.62589 14.3722 8.64701L16.0638 9.71387ZM15.3009 10.3986L13.9241 11.0742L13.043 9.27878L14.4198 8.60313L15.3009 10.3986ZM13.924 11.0743C13.2649 11.3976 12.5391 11.5655 11.804 11.5655V9.56553C12.2349 9.56553 12.6592 9.46704 13.0431 9.27873L13.924 11.0743ZM11.804 11.5655C11.0688 11.5655 10.3431 11.3976 9.68397 11.0743L10.5649 9.27873C10.9487 9.46704 11.373 9.56553 11.804 9.56553V11.5655ZM9.68364 11.0741L8.30773 10.3985L9.18929 8.60324L10.5652 9.27889L9.68364 11.0741ZM8.3084 10.3988C7.99654 10.2459 7.73149 10.0096 7.54499 9.71387L9.23668 8.64701C9.22336 8.62589 9.20601 8.61143 9.18862 8.60291L8.3084 10.3988ZM7.54499 9.71387C7.35838 9.41795 7.25845 9.07515 7.25825 8.72401L9.25825 8.72292C9.25824 8.69467 9.25013 8.66833 9.23668 8.64701L7.54499 9.71387ZM7.25825 8.72346V6.3739H9.25825V8.72346H7.25825Z" fill="black" mask="url(#path-3-outside-1_22_60)"/>
<path d="M11.6013 3.15202C11.7309 3.09424 11.8789 3.09424 12.0085 3.15202L16.8845 5.32593C17.0648 5.40631 17.1809 5.58522 17.1809 5.7826C17.1809 5.97998 17.0648 6.1589 16.8845 6.23927L12.0085 8.41318C11.8789 8.47096 11.7309 8.47096 11.6013 8.41318L6.72535 6.23927C6.54507 6.1589 6.42895 5.97998 6.42895 5.7826C6.42895 5.58522 6.54507 5.40631 6.72535 5.32593L11.6013 3.15202ZM6.45554 7.79563C6.52445 7.59288 6.71481 7.45651 6.92895 7.45651C7.14309 7.45651 7.33346 7.59288 7.40236 7.79563L7.84563 9.09998C7.90747 9.28194 7.85954 9.48324 7.72234 9.61782L7.27907 10.0526C7.08462 10.2433 6.77328 10.2433 6.57883 10.0526L6.13556 9.61782C5.99836 9.48324 5.95043 9.28194 6.01227 9.09998L6.45554 7.79563Z" stroke="black" stroke-miterlimit="10" stroke-linecap="round" stroke-linejoin="round"/>
</svg>
