<svg width="22" height="23" viewBox="0 0 22 23" fill="none" xmlns="http://www.w3.org/2000/svg">
<path d="M1.10003 8.48485L9.85003 0.92692C10.509 0.357694 11.491 0.357693 12.15 0.926919L20.9 8.48485C21.2803 8.81333 21.5 9.28952 21.5 9.79188V20.3375C21.5 21.3012 20.7104 22.0714 19.75 22.0714H14.75C13.7896 22.0714 13 21.3012 13 20.3375V15.4017C13 15.0024 12.6703 14.6677 12.25 14.6677H9.75C9.32967 14.6677 9 15.0024 9 15.4017V20.3375C9 21.3012 8.21039 22.0714 7.25 22.0714H2.25C1.28962 22.0714 0.5 21.3012 0.5 20.3375V9.79188C0.5 9.28952 0.71974 8.81333 1.10003 8.48485Z" stroke="black" stroke-opacity="0.8" stroke-linecap="round" stroke-linejoin="round"/>
</svg>
