<svg width="35" height="47" viewBox="0 0 35 47" fill="none" xmlns="http://www.w3.org/2000/svg">
<path d="M17.8865 0.00564459C16.1169 -0.0460558 14.3549 0.257834 12.7049 0.899322C11.0549 1.54081 9.55037 2.50685 8.28041 3.74025C7.01044 4.97365 6.00087 6.44933 5.31147 8.07991C4.62206 9.71049 4.26684 11.4628 4.26684 13.2332V21.7118C1.60956 24.2959 0 27.6635 0 31.3419C0 39.4658 7.85106 46.0736 17.5 46.0736C27.1489 46.0736 35 39.4646 35 31.3419C35 27.664 33.3904 24.2965 30.7332 21.7123V13.2332C30.7332 9.79043 29.3915 6.48324 26.9929 4.01357C24.5944 1.5439 21.3277 0.1062 17.8865 0.00564459ZM17.5 1.50863C20.6085 1.51196 23.5888 2.74829 25.7868 4.94635C27.9849 7.1444 29.2212 10.1246 29.2245 13.2332V20.3991C29.0761 20.292 28.9261 20.1871 28.7745 20.0846C28.6931 20.0268 28.6112 19.9695 28.5287 19.913C28.3017 19.7576 28.0712 19.6075 27.8372 19.4629C27.5028 19.2561 27.1594 19.0591 26.8076 18.8723C26.7302 18.8271 26.6525 18.7825 26.5744 18.7385V13.2307C26.5888 12.03 26.3647 10.8383 25.9152 9.72479C25.4656 8.61128 24.7996 7.59806 23.9556 6.74387C23.1116 5.88968 22.1064 5.21149 20.9984 4.74863C19.8903 4.28577 18.7014 4.04743 17.5006 4.04743C16.2998 4.04743 15.1109 4.28577 14.0029 4.74863C12.8948 5.21149 11.8897 5.88968 11.0457 6.74387C10.2017 7.59806 9.53559 8.61128 9.08605 9.72479C8.63651 10.8383 8.41246 12.03 8.42686 13.2307V18.7371C8.30883 18.8013 8.19154 18.8668 8.075 18.9337C7.9323 19.0108 7.79126 19.0903 7.65143 19.1707C7.43721 19.2937 7.22559 19.4212 7.0167 19.553C6.67089 19.7715 6.33508 20.0006 6.00972 20.2395C5.93121 20.2921 5.85312 20.3453 5.77547 20.3991V13.2332C5.7788 10.1246 7.01513 7.1444 9.21319 4.94635C11.4112 2.74829 14.3915 1.51196 17.5 1.50863ZM17.3772 5.57092C18.3892 5.55442 19.3943 5.74114 20.3328 6.12003C21.2713 6.49892 22.1243 7.06227 22.8412 7.77674C23.5581 8.4912 24.1244 9.34224 24.5065 10.2795C24.8886 11.2167 25.0788 12.2211 25.0657 13.2332V18.0593C22.7746 17.1307 20.2082 16.6099 17.5 16.6099C14.7923 16.6099 12.2263 17.1304 9.93549 18.0586V13.2332C9.9097 11.2313 10.6784 9.30074 12.0733 7.86455C13.4682 6.42835 15.3754 5.60358 17.3772 5.57092ZM17.5 18.1185C20.4696 18.1185 23.252 18.792 25.6374 19.9628C26.0478 20.1629 26.4493 20.3806 26.8408 20.6155C26.9067 20.6549 26.9728 20.6941 27.038 20.7343C27.4423 20.9833 27.8353 21.2504 28.2156 21.5348C28.2411 21.5539 28.2664 21.5731 28.2917 21.5923C28.6814 21.8887 29.0571 22.2032 29.4175 22.5347C31.9495 24.8748 33.4914 27.962 33.4914 31.3419C33.4914 38.6336 26.3179 44.565 17.5 44.565C8.68206 44.565 1.50863 38.6336 1.50863 31.3419C1.50863 27.9454 3.06543 24.8443 5.61955 22.5C5.98868 22.1631 6.37355 21.8439 6.77287 21.5434C6.79494 21.5269 6.81748 21.5107 6.83966 21.4943C7.22046 21.2122 7.61373 20.9473 8.01828 20.7004C8.08247 20.6612 8.14684 20.6222 8.21177 20.5838C8.60826 20.3481 9.01486 20.1299 9.43041 19.9297C11.8007 18.7793 14.5585 18.1185 17.5 18.1185ZM17.4781 24.6763C16.5687 24.6808 15.6818 24.9599 14.9337 25.4771C14.1856 25.9942 13.6112 26.7253 13.2858 27.5746C12.9604 28.4238 12.8991 29.3516 13.11 30.2362C13.3209 31.1209 13.7942 31.9212 14.4678 32.5323L14.025 35.4088C13.9758 35.7303 13.9966 36.0586 14.086 36.3713C14.1754 36.684 14.3314 36.9737 14.5432 37.2205C14.755 37.4673 15.0177 37.6654 15.3132 37.8012C15.6087 37.937 15.9301 38.0074 16.2553 38.0074H18.7447C19.0699 38.0074 19.3913 37.937 19.6868 37.8012C19.9823 37.6654 20.245 37.4673 20.4568 37.2205C20.6686 36.9737 20.8246 36.684 20.914 36.3713C21.0034 36.0586 21.0242 35.7303 20.975 35.4088L20.5322 32.5323C21.2086 31.9187 21.6829 31.1144 21.8925 30.2256C22.1021 29.3368 22.0372 28.4053 21.7063 27.5542C21.3754 26.7031 20.7941 25.9723 20.0392 25.4585C19.2843 24.9447 18.3913 24.6719 17.4781 24.6763ZM17.5 26.1847C18.1358 26.1814 18.7562 26.3798 19.2721 26.7514C19.7879 27.1231 20.1726 27.6488 20.3708 28.2529C20.5689 28.857 20.5703 29.5084 20.3748 30.1134C20.1793 30.7183 19.7969 31.2457 19.2827 31.6196C19.1715 31.7012 19.0848 31.8118 19.0321 31.9392C18.9794 32.0667 18.9626 32.2061 18.9836 32.3425L19.4865 35.6426C19.5027 35.749 19.4958 35.8577 19.4663 35.9613C19.4367 36.0648 19.3851 36.1607 19.315 36.2425C19.2449 36.3243 19.158 36.3899 19.0602 36.435C18.9624 36.4801 18.856 36.5035 18.7484 36.5037H16.2593C16.1516 36.5035 16.0452 36.4801 15.9474 36.435C15.8496 36.3899 15.7627 36.3243 15.6926 36.2425C15.6226 36.1607 15.571 36.0648 15.5414 35.9613C15.5118 35.8577 15.5049 35.749 15.5212 35.6426L16.024 32.3425C16.045 32.2061 16.0283 32.0667 15.9755 31.9392C15.9228 31.8118 15.8361 31.7012 15.725 31.6196C15.2134 31.2454 14.8334 30.719 14.639 30.1158C14.4447 29.5125 14.4461 28.8633 14.6431 28.2609C14.84 27.6585 15.2224 27.1338 15.7355 26.7618C16.2486 26.3898 16.8662 26.1896 17.5 26.1898V26.1847Z" fill="black"/>
</svg>
