<svg width="22" height="22" viewBox="0 0 22 22" fill="none" xmlns="http://www.w3.org/2000/svg">
<mask id="path-1-outside-1_7_141" maskUnits="userSpaceOnUse" x="0" y="0" width="22" height="22" fill="black">
<rect fill="white" width="22" height="22"/>
<path d="M16 11.7196C16 10.8438 15.31 10.1315 14.4615 10.1315C14.3595 10.1315 14.2617 10.0897 14.1896 10.0152C14.1174 9.94078 14.0769 9.83979 14.0769 9.7345C14.0769 9.6292 14.1174 9.52822 14.1896 9.45376C14.2617 9.3793 14.3595 9.33747 14.4615 9.33747C15.31 9.33747 16 8.62522 16 7.74938C16 7.64409 16.0405 7.5431 16.1127 7.46865C16.1848 7.39419 16.2826 7.35236 16.3846 7.35236C16.4866 7.35236 16.5845 7.39419 16.6566 7.46865C16.7287 7.5431 16.7692 7.64409 16.7692 7.74938C16.7692 8.62522 17.4592 9.33747 18.3077 9.33747C18.4097 9.33747 18.5075 9.3793 18.5797 9.45376C18.6518 9.52822 18.6923 9.6292 18.6923 9.7345C18.6923 9.83979 18.6518 9.94078 18.5797 10.0152C18.5075 10.0897 18.4097 10.1315 18.3077 10.1315C17.4592 10.1315 16.7692 10.8438 16.7692 11.7196C16.7692 11.8249 16.7287 11.9259 16.6566 12.0003C16.5845 12.0748 16.4866 12.1166 16.3846 12.1166C16.2826 12.1166 16.1848 12.0748 16.1127 12.0003C16.0405 11.9259 16 11.8249 16 11.7196ZM17.0338 9.7345C16.7763 9.55831 16.5556 9.33072 16.3846 9.06512C16.2138 9.33033 15.9931 9.55743 15.7354 9.7345C15.9929 9.91068 16.2136 10.1383 16.3846 10.4039C16.5556 10.1383 16.7763 9.91068 17.0338 9.7345ZM4.07693 9.33747C4.50154 9.33747 4.84616 8.98095 4.84616 8.54343C4.84616 8.43813 4.88668 8.33715 4.95881 8.26269C5.03094 8.18824 5.12877 8.14641 5.23077 8.14641C5.33278 8.14641 5.43061 8.18824 5.50274 8.26269C5.57487 8.33715 5.61539 8.43813 5.61539 8.54343C5.61539 8.98095 5.96 9.33747 6.38462 9.33747C6.48662 9.33747 6.58445 9.3793 6.65658 9.45376C6.72871 9.52822 6.76923 9.6292 6.76923 9.7345C6.76923 9.83979 6.72871 9.94078 6.65658 10.0152C6.58445 10.0897 6.48662 10.1315 6.38462 10.1315C5.96 10.1315 5.61539 10.488 5.61539 10.9256C5.61539 11.0309 5.57487 11.1318 5.50274 11.2063C5.43061 11.2808 5.33278 11.3226 5.23077 11.3226C5.12877 11.3226 5.03094 11.2808 4.95881 11.2063C4.88668 11.1318 4.84616 11.0309 4.84616 10.9256C4.84616 10.488 4.50154 10.1315 4.07693 10.1315C3.97492 10.1315 3.87709 10.0897 3.80496 10.0152C3.73283 9.94078 3.69231 9.83979 3.69231 9.7345C3.69231 9.6292 3.73283 9.52822 3.80496 9.45376C3.87709 9.3793 3.97492 9.33747 4.07693 9.33747ZM5.23077 9.87663C5.27361 9.82619 5.3196 9.77871 5.36847 9.7345C5.3196 9.69028 5.27361 9.6428 5.23077 9.59236C5.1877 9.64318 5.14231 9.69003 5.09308 9.7345C5.14194 9.77871 5.18794 9.82619 5.23077 9.87663Z"/>
<path d="M2.53846 1H19.4615C20.31 1 21 1.71226 21 2.58809V20.0571C21 20.9329 20.31 21.6452 19.4615 21.6452H2.53846C1.69 21.6452 1 20.9329 1 20.0571V2.58809C1 1.71226 1.69 1 2.53846 1ZM19.4615 1.79404H2.53846C2.11384 1.79404 1.76923 2.15057 1.76923 2.58809V4.17618H20.2308V2.58809C20.2308 2.15057 19.8862 1.79404 19.4615 1.79404ZM2.53846 20.8511H19.4615C19.8862 20.8511 20.2308 20.4946 20.2308 20.0571V4.97022H1.76923V20.0571C1.76923 20.4946 2.11384 20.8511 2.53846 20.8511Z"/>
<path d="M16 3.38213C15.7876 3.38213 15.6154 3.20438 15.6154 2.98511C15.6154 2.76584 15.7876 2.58809 16 2.58809C16.2124 2.58809 16.3846 2.76584 16.3846 2.98511C16.3846 3.20438 16.2124 3.38213 16 3.38213Z"/>
<path d="M17.5385 3.38213C17.326 3.38213 17.1538 3.20438 17.1538 2.98511C17.1538 2.76584 17.326 2.58809 17.5385 2.58809C17.7509 2.58809 17.9231 2.76584 17.9231 2.98511C17.9231 3.20438 17.7509 3.38213 17.5385 3.38213Z"/>
<path d="M19.0769 3.38213C18.8645 3.38213 18.6923 3.20438 18.6923 2.98511C18.6923 2.76584 18.8645 2.58809 19.0769 2.58809C19.2893 2.58809 19.4615 2.76584 19.4615 2.98511C19.4615 3.20438 19.2893 3.38213 19.0769 3.38213Z"/>
<path d="M12.6338 11.4576C12.667 11.4183 12.7074 11.3861 12.7527 11.363C12.798 11.3399 12.8472 11.3262 12.8976 11.3228C12.948 11.3195 12.9986 11.3264 13.0464 11.3432C13.0942 11.3601 13.1383 11.3865 13.1762 11.421L16.2531 14.2002C16.2941 14.2375 16.327 14.2835 16.3496 14.3349C16.3721 14.3864 16.3838 14.4423 16.3838 14.4988C16.3838 14.5552 16.3721 14.6111 16.3496 14.6626C16.327 14.7141 16.2941 14.76 16.2531 14.7973L13.1762 17.5765C13.1383 17.611 13.0942 17.6375 13.0463 17.6544C12.9985 17.6712 12.9479 17.6781 12.8975 17.6746C12.847 17.6711 12.7978 17.6574 12.7525 17.6341C12.7073 17.6109 12.6669 17.5786 12.6338 17.5392C12.5668 17.4599 12.533 17.3565 12.5397 17.2515C12.5465 17.1466 12.5934 17.0487 12.67 16.9794L15.4154 14.4988L12.6692 12.0182C12.5926 11.9488 12.5457 11.8509 12.539 11.746C12.5322 11.641 12.566 11.5376 12.6331 11.4584L12.6338 11.4576ZM10.1477 10.5381C10.2472 10.5158 10.3512 10.535 10.4371 10.5915C10.523 10.648 10.5837 10.7373 10.6062 10.8398L12.1446 17.9862C12.1635 18.0877 12.1434 18.1929 12.0883 18.2793C12.0333 18.3657 11.9478 18.4265 11.85 18.4489C11.7522 18.4712 11.6499 18.4533 11.5647 18.3989C11.4795 18.3445 11.4182 18.258 11.3938 18.1577L9.85538 11.0113C9.83339 10.9085 9.85183 10.801 9.90664 10.7122C9.96145 10.6235 10.0482 10.5608 10.1477 10.5381ZM8.82308 11.421C8.86106 11.3864 8.9053 11.3599 8.95326 11.343C9.00121 11.326 9.05193 11.3191 9.1025 11.3224C9.15307 11.3258 9.2025 11.3395 9.24794 11.3626C9.29338 11.3858 9.33393 11.418 9.36728 11.4574C9.40063 11.4968 9.4261 11.5426 9.44224 11.5922C9.45838 11.6418 9.46487 11.6942 9.46134 11.7463C9.4578 11.7985 9.44431 11.8495 9.42164 11.8963C9.39897 11.943 9.36756 11.9847 9.32923 12.019L6.58539 14.4988L9.33154 16.9794C9.36952 17.0138 9.40057 17.0556 9.4229 17.1024C9.44523 17.1492 9.45842 17.2 9.46171 17.2521C9.46499 17.3041 9.45831 17.3564 9.44205 17.4057C9.42579 17.4551 9.40026 17.5007 9.36692 17.5399C9.33359 17.5792 9.2931 17.6112 9.24776 17.6343C9.20243 17.6573 9.15314 17.6709 9.10271 17.6743C9.05229 17.6777 9.0017 17.6708 8.95385 17.654C8.906 17.6372 8.86183 17.6109 8.82385 17.5765L5.74692 14.7973C5.70596 14.7599 5.67316 14.714 5.6507 14.6625C5.62824 14.611 5.61662 14.5552 5.61662 14.4988C5.61662 14.4423 5.62824 14.3865 5.6507 14.335C5.67316 14.2836 5.70596 14.2376 5.74692 14.2002L8.82308 11.421Z"/>
</mask>
<path d="M16 11.7196C16 10.8438 15.31 10.1315 14.4615 10.1315C14.3595 10.1315 14.2617 10.0897 14.1896 10.0152C14.1174 9.94078 14.0769 9.83979 14.0769 9.7345C14.0769 9.6292 14.1174 9.52822 14.1896 9.45376C14.2617 9.3793 14.3595 9.33747 14.4615 9.33747C15.31 9.33747 16 8.62522 16 7.74938C16 7.64409 16.0405 7.5431 16.1127 7.46865C16.1848 7.39419 16.2826 7.35236 16.3846 7.35236C16.4866 7.35236 16.5845 7.39419 16.6566 7.46865C16.7287 7.5431 16.7692 7.64409 16.7692 7.74938C16.7692 8.62522 17.4592 9.33747 18.3077 9.33747C18.4097 9.33747 18.5075 9.3793 18.5797 9.45376C18.6518 9.52822 18.6923 9.6292 18.6923 9.7345C18.6923 9.83979 18.6518 9.94078 18.5797 10.0152C18.5075 10.0897 18.4097 10.1315 18.3077 10.1315C17.4592 10.1315 16.7692 10.8438 16.7692 11.7196C16.7692 11.8249 16.7287 11.9259 16.6566 12.0003C16.5845 12.0748 16.4866 12.1166 16.3846 12.1166C16.2826 12.1166 16.1848 12.0748 16.1127 12.0003C16.0405 11.9259 16 11.8249 16 11.7196ZM17.0338 9.7345C16.7763 9.55831 16.5556 9.33072 16.3846 9.06512C16.2138 9.33033 15.9931 9.55743 15.7354 9.7345C15.9929 9.91068 16.2136 10.1383 16.3846 10.4039C16.5556 10.1383 16.7763 9.91068 17.0338 9.7345ZM4.07693 9.33747C4.50154 9.33747 4.84616 8.98095 4.84616 8.54343C4.84616 8.43813 4.88668 8.33715 4.95881 8.26269C5.03094 8.18824 5.12877 8.14641 5.23077 8.14641C5.33278 8.14641 5.43061 8.18824 5.50274 8.26269C5.57487 8.33715 5.61539 8.43813 5.61539 8.54343C5.61539 8.98095 5.96 9.33747 6.38462 9.33747C6.48662 9.33747 6.58445 9.3793 6.65658 9.45376C6.72871 9.52822 6.76923 9.6292 6.76923 9.7345C6.76923 9.83979 6.72871 9.94078 6.65658 10.0152C6.58445 10.0897 6.48662 10.1315 6.38462 10.1315C5.96 10.1315 5.61539 10.488 5.61539 10.9256C5.61539 11.0309 5.57487 11.1318 5.50274 11.2063C5.43061 11.2808 5.33278 11.3226 5.23077 11.3226C5.12877 11.3226 5.03094 11.2808 4.95881 11.2063C4.88668 11.1318 4.84616 11.0309 4.84616 10.9256C4.84616 10.488 4.50154 10.1315 4.07693 10.1315C3.97492 10.1315 3.87709 10.0897 3.80496 10.0152C3.73283 9.94078 3.69231 9.83979 3.69231 9.7345C3.69231 9.6292 3.73283 9.52822 3.80496 9.45376C3.87709 9.3793 3.97492 9.33747 4.07693 9.33747ZM5.23077 9.87663C5.27361 9.82619 5.3196 9.77871 5.36847 9.7345C5.3196 9.69028 5.27361 9.6428 5.23077 9.59236C5.1877 9.64318 5.14231 9.69003 5.09308 9.7345C5.14194 9.77871 5.18794 9.82619 5.23077 9.87663Z" fill="black"/>
<path d="M2.53846 1H19.4615C20.31 1 21 1.71226 21 2.58809V20.0571C21 20.9329 20.31 21.6452 19.4615 21.6452H2.53846C1.69 21.6452 1 20.9329 1 20.0571V2.58809C1 1.71226 1.69 1 2.53846 1ZM19.4615 1.79404H2.53846C2.11384 1.79404 1.76923 2.15057 1.76923 2.58809V4.17618H20.2308V2.58809C20.2308 2.15057 19.8862 1.79404 19.4615 1.79404ZM2.53846 20.8511H19.4615C19.8862 20.8511 20.2308 20.4946 20.2308 20.0571V4.97022H1.76923V20.0571C1.76923 20.4946 2.11384 20.8511 2.53846 20.8511Z" fill="black"/>
<path d="M16 3.38213C15.7876 3.38213 15.6154 3.20438 15.6154 2.98511C15.6154 2.76584 15.7876 2.58809 16 2.58809C16.2124 2.58809 16.3846 2.76584 16.3846 2.98511C16.3846 3.20438 16.2124 3.38213 16 3.38213Z" fill="black"/>
<path d="M17.5385 3.38213C17.326 3.38213 17.1538 3.20438 17.1538 2.98511C17.1538 2.76584 17.326 2.58809 17.5385 2.58809C17.7509 2.58809 17.9231 2.76584 17.9231 2.98511C17.9231 3.20438 17.7509 3.38213 17.5385 3.38213Z" fill="black"/>
<path d="M19.0769 3.38213C18.8645 3.38213 18.6923 3.20438 18.6923 2.98511C18.6923 2.76584 18.8645 2.58809 19.0769 2.58809C19.2893 2.58809 19.4615 2.76584 19.4615 2.98511C19.4615 3.20438 19.2893 3.38213 19.0769 3.38213Z" fill="black"/>
<path d="M12.6338 11.4576C12.667 11.4183 12.7074 11.3861 12.7527 11.363C12.798 11.3399 12.8472 11.3262 12.8976 11.3228C12.948 11.3195 12.9986 11.3264 13.0464 11.3432C13.0942 11.3601 13.1383 11.3865 13.1762 11.421L16.2531 14.2002C16.2941 14.2375 16.327 14.2835 16.3496 14.3349C16.3721 14.3864 16.3838 14.4423 16.3838 14.4988C16.3838 14.5552 16.3721 14.6111 16.3496 14.6626C16.327 14.7141 16.2941 14.76 16.2531 14.7973L13.1762 17.5765C13.1383 17.611 13.0942 17.6375 13.0463 17.6544C12.9985 17.6712 12.9479 17.6781 12.8975 17.6746C12.847 17.6711 12.7978 17.6574 12.7525 17.6341C12.7073 17.6109 12.6669 17.5786 12.6338 17.5392C12.5668 17.4599 12.533 17.3565 12.5397 17.2515C12.5465 17.1466 12.5934 17.0487 12.67 16.9794L15.4154 14.4988L12.6692 12.0182C12.5926 11.9488 12.5457 11.8509 12.539 11.746C12.5322 11.641 12.566 11.5376 12.6331 11.4584L12.6338 11.4576ZM10.1477 10.5381C10.2472 10.5158 10.3512 10.535 10.4371 10.5915C10.523 10.648 10.5837 10.7373 10.6062 10.8398L12.1446 17.9862C12.1635 18.0877 12.1434 18.1929 12.0883 18.2793C12.0333 18.3657 11.9478 18.4265 11.85 18.4489C11.7522 18.4712 11.6499 18.4533 11.5647 18.3989C11.4795 18.3445 11.4182 18.258 11.3938 18.1577L9.85538 11.0113C9.83339 10.9085 9.85183 10.801 9.90664 10.7122C9.96145 10.6235 10.0482 10.5608 10.1477 10.5381ZM8.82308 11.421C8.86106 11.3864 8.9053 11.3599 8.95326 11.343C9.00121 11.326 9.05193 11.3191 9.1025 11.3224C9.15307 11.3258 9.2025 11.3395 9.24794 11.3626C9.29338 11.3858 9.33393 11.418 9.36728 11.4574C9.40063 11.4968 9.4261 11.5426 9.44224 11.5922C9.45838 11.6418 9.46487 11.6942 9.46134 11.7463C9.4578 11.7985 9.44431 11.8495 9.42164 11.8963C9.39897 11.943 9.36756 11.9847 9.32923 12.019L6.58539 14.4988L9.33154 16.9794C9.36952 17.0138 9.40057 17.0556 9.4229 17.1024C9.44523 17.1492 9.45842 17.2 9.46171 17.2521C9.46499 17.3041 9.45831 17.3564 9.44205 17.4057C9.42579 17.4551 9.40026 17.5007 9.36692 17.5399C9.33359 17.5792 9.2931 17.6112 9.24776 17.6343C9.20243 17.6573 9.15314 17.6709 9.10271 17.6743C9.05229 17.6777 9.0017 17.6708 8.95385 17.654C8.906 17.6372 8.86183 17.6109 8.82385 17.5765L5.74692 14.7973C5.70596 14.7599 5.67316 14.714 5.6507 14.6625C5.62824 14.611 5.61662 14.5552 5.61662 14.4988C5.61662 14.4423 5.62824 14.3865 5.6507 14.335C5.67316 14.2836 5.70596 14.2376 5.74692 14.2002L8.82308 11.421Z" fill="black"/>
<path d="M17.0338 9.7345L17.1468 9.56943L17.388 9.7345L17.1468 9.89956L17.0338 9.7345ZM16.3846 9.06512L16.2165 8.95684L16.3846 8.69566L16.5528 8.95686L16.3846 9.06512ZM15.7354 9.7345L15.6225 9.89956L15.3817 9.73485L15.6221 9.56966L15.7354 9.7345ZM16.3846 10.4039L16.5528 10.5121L16.3846 10.7734L16.2165 10.5121L16.3846 10.4039ZM5.23077 9.87663L5.38321 10.0061L5.23077 10.1856L5.07833 10.0061L5.23077 9.87663ZM5.36847 9.7345L5.50266 9.5862L5.66653 9.7345L5.50266 9.88279L5.36847 9.7345ZM5.23077 9.59236L5.07821 9.46304L5.23063 9.28323L5.38321 9.4629L5.23077 9.59236ZM5.09308 9.7345L4.95888 9.88279L4.79486 9.73436L4.95902 9.58608L5.09308 9.7345ZM1.76923 4.17618V4.37618H1.56923V4.17618H1.76923ZM20.2308 4.17618H20.4308V4.37618H20.2308V4.17618ZM20.2308 4.97022V4.77022H20.4308V4.97022H20.2308ZM1.76923 4.97022H1.56923V4.77022H1.76923V4.97022ZM12.6338 11.4576L12.787 11.5869L12.7775 11.5967L12.6338 11.4576ZM13.1762 11.421L13.0421 11.5695L13.0414 11.5688L13.1762 11.421ZM16.2531 14.2002L16.3871 14.0518L16.3876 14.0522L16.2531 14.2002ZM16.3838 14.4988H16.5838H16.3838ZM16.2531 14.7973L16.3876 14.9453L16.3871 14.9457L16.2531 14.7973ZM13.1762 17.5765L13.0413 17.4288L13.0421 17.4281L13.1762 17.5765ZM12.6338 17.5392L12.7865 17.4099L12.7871 17.4106L12.6338 17.5392ZM12.67 16.9794L12.5358 16.831L12.5359 16.831L12.67 16.9794ZM15.4154 14.4988L15.5494 14.3503L15.7137 14.4987L15.5495 14.6472L15.4154 14.4988ZM12.6692 12.0182L12.5352 12.1666L12.5351 12.1665L12.6692 12.0182ZM12.6331 11.4584L12.4801 11.3289L12.4894 11.3192L12.6331 11.4584ZM10.1477 10.5381L10.1031 10.3431L10.104 10.3429L10.1477 10.5381ZM10.6062 10.8398L10.8015 10.797L10.8017 10.7977L10.6062 10.8398ZM12.1446 17.9862L12.3402 17.9441L12.3412 17.9496L12.1446 17.9862ZM11.3938 18.1577L11.1994 18.2049L11.1983 18.1998L11.3938 18.1577ZM9.85538 11.0113L9.65986 11.0534L9.65981 11.0532L9.85538 11.0113ZM8.82308 11.421L8.95781 11.5688L8.95715 11.5694L8.82308 11.421ZM9.32923 12.019L9.19513 11.8706L9.19605 11.8697L9.32923 12.019ZM6.58539 14.4988L6.45132 14.6472L6.28706 14.4988L6.45128 14.3504L6.58539 14.4988ZM9.33154 16.9794L9.4656 16.8309L9.46582 16.8311L9.33154 16.9794ZM8.82385 17.5765L8.9579 17.4281L8.95813 17.4283L8.82385 17.5765ZM5.74692 14.7973L5.61286 14.9457L5.61206 14.945L5.74692 14.7973ZM5.61662 14.4988H5.41662H5.61662ZM5.74692 14.2002L5.61206 14.0525L5.61285 14.0518L5.74692 14.2002ZM15.8 11.7196C15.8 10.9482 15.1936 10.3315 14.4615 10.3315V9.93152C15.4264 9.93152 16.2 10.7394 16.2 11.7196H15.8ZM14.4615 10.3315C14.3044 10.3315 14.155 10.267 14.0459 10.1544L14.3332 9.87608C14.3684 9.91236 14.4147 9.93152 14.4615 9.93152V10.3315ZM14.0459 10.1544C13.937 10.042 13.8769 9.89082 13.8769 9.7345H14.2769C14.2769 9.78876 14.2979 9.83958 14.3332 9.87608L14.0459 10.1544ZM13.8769 9.7345C13.8769 9.57817 13.937 9.42702 14.0459 9.3146L14.3332 9.59292C14.2979 9.62941 14.2769 9.68023 14.2769 9.7345H13.8769ZM14.0459 9.3146C14.155 9.20197 14.3044 9.13748 14.4615 9.13748V9.53747C14.4147 9.53747 14.3684 9.55664 14.3332 9.59292L14.0459 9.3146ZM14.4615 9.13748C15.1936 9.13748 15.8 8.52079 15.8 7.74938H16.2C16.2 8.72964 15.4264 9.53747 14.4615 9.53747V9.13748ZM15.8 7.74938C15.8 7.59306 15.8601 7.4419 15.969 7.32949L16.2563 7.60781C16.2209 7.6443 16.2 7.69512 16.2 7.74938H15.8ZM15.969 7.32949C16.0781 7.21686 16.2275 7.15236 16.3846 7.15236V7.55236C16.3377 7.55236 16.2914 7.57153 16.2563 7.60781L15.969 7.32949ZM16.3846 7.15236C16.5418 7.15236 16.6911 7.21686 16.8002 7.32949L16.5129 7.60781C16.4778 7.57153 16.4315 7.55236 16.3846 7.55236V7.15236ZM16.8002 7.32949C16.9091 7.4419 16.9692 7.59306 16.9692 7.74938H16.5692C16.5692 7.69512 16.5483 7.6443 16.5129 7.60781L16.8002 7.32949ZM16.9692 7.74938C16.9692 8.52079 17.5756 9.13748 18.3077 9.13748V9.53747C17.3428 9.53747 16.5692 8.72964 16.5692 7.74938H16.9692ZM18.3077 9.13748C18.4648 9.13748 18.6142 9.20197 18.7233 9.3146L18.436 9.59292C18.4009 9.55664 18.3546 9.53747 18.3077 9.53747V9.13748ZM18.7233 9.3146C18.8322 9.42702 18.8923 9.57817 18.8923 9.7345H18.4923C18.4923 9.68023 18.4714 9.62941 18.436 9.59292L18.7233 9.3146ZM18.8923 9.7345C18.8923 9.89082 18.8322 10.042 18.7233 10.1544L18.436 9.87608C18.4714 9.83958 18.4923 9.78876 18.4923 9.7345H18.8923ZM18.7233 10.1544C18.6142 10.267 18.4648 10.3315 18.3077 10.3315V9.93152C18.3546 9.93152 18.4009 9.91236 18.436 9.87608L18.7233 10.1544ZM18.3077 10.3315C17.5756 10.3315 16.9692 10.9482 16.9692 11.7196H16.5692C16.5692 10.7394 17.3428 9.93152 18.3077 9.93152V10.3315ZM16.9692 11.7196C16.9692 11.8759 16.9091 12.0271 16.8002 12.1395L16.5129 11.8612C16.5483 11.8247 16.5692 11.7739 16.5692 11.7196H16.9692ZM16.8002 12.1395C16.6911 12.2521 16.5418 12.3166 16.3846 12.3166V11.9166C16.4315 11.9166 16.4778 11.8975 16.5129 11.8612L16.8002 12.1395ZM16.3846 12.3166C16.2275 12.3166 16.0781 12.2521 15.969 12.1395L16.2563 11.8612C16.2914 11.8975 16.3377 11.9166 16.3846 11.9166V12.3166ZM15.969 12.1395C15.8601 12.0271 15.8 11.8759 15.8 11.7196H16.2C16.2 11.7739 16.2209 11.8247 16.2563 11.8612L15.969 12.1395ZM16.9209 9.89956C16.6411 9.70812 16.4017 9.46112 16.2165 9.17338L16.5528 8.95686C16.7095 9.20032 16.9116 9.4085 17.1468 9.56943L16.9209 9.89956ZM16.5528 9.17339C16.3676 9.46091 16.1282 9.70723 15.8487 9.89933L15.6221 9.56966C15.8579 9.40762 16.0601 9.19975 16.2165 8.95684L16.5528 9.17339ZM15.8483 9.56943C16.1281 9.76087 16.3675 10.0079 16.5528 10.2956L16.2165 10.5121C16.0597 10.2687 15.8577 10.0605 15.6225 9.89956L15.8483 9.56943ZM16.2165 10.2956C16.4017 10.0079 16.6411 9.76087 16.9209 9.56943L17.1468 9.89956C16.9116 10.0605 16.7095 10.2687 16.5528 10.5121L16.2165 10.2956ZM4.07693 9.13748C4.38502 9.13748 4.64616 8.87666 4.64616 8.54343H5.04616C5.04616 9.08524 4.61806 9.53747 4.07693 9.53747V9.13748ZM4.64616 8.54343C4.64616 8.3871 4.70625 8.23595 4.81516 8.12353L5.10246 8.40185C5.0671 8.43835 5.04616 8.48916 5.04616 8.54343H4.64616ZM4.81516 8.12353C4.92427 8.0109 5.07364 7.94641 5.23077 7.94641V8.34641C5.18389 8.34641 5.1376 8.36557 5.10246 8.40185L4.81516 8.12353ZM5.23077 7.94641C5.38791 7.94641 5.53727 8.0109 5.64638 8.12353L5.35909 8.40185C5.32394 8.36557 5.27765 8.34641 5.23077 8.34641V7.94641ZM5.64638 8.12353C5.75529 8.23595 5.81539 8.3871 5.81539 8.54343H5.41539C5.41539 8.48916 5.39444 8.43835 5.35909 8.40185L5.64638 8.12353ZM5.81539 8.54343C5.81539 8.87666 6.07653 9.13748 6.38462 9.13748V9.53747C5.84348 9.53747 5.41539 9.08524 5.41539 8.54343H5.81539ZM6.38462 9.13748C6.54175 9.13748 6.69112 9.20197 6.80023 9.3146L6.51293 9.59292C6.47779 9.55664 6.4315 9.53747 6.38462 9.53747V9.13748ZM6.80023 9.3146C6.90913 9.42702 6.96923 9.57817 6.96923 9.7345H6.56923C6.56923 9.68023 6.54829 9.62941 6.51293 9.59292L6.80023 9.3146ZM6.96923 9.7345C6.96923 9.89082 6.90913 10.042 6.80023 10.1544L6.51293 9.87608C6.54829 9.83958 6.56923 9.78876 6.56923 9.7345H6.96923ZM6.80023 10.1544C6.69112 10.267 6.54175 10.3315 6.38462 10.3315V9.93152C6.4315 9.93152 6.47779 9.91236 6.51293 9.87608L6.80023 10.1544ZM6.38462 10.3315C6.07653 10.3315 5.81539 10.5923 5.81539 10.9256H5.41539C5.41539 10.3838 5.84348 9.93152 6.38462 9.93152V10.3315ZM5.81539 10.9256C5.81539 11.0819 5.75529 11.233 5.64638 11.3455L5.35909 11.0671C5.39444 11.0306 5.41539 10.9798 5.41539 10.9256H5.81539ZM5.64638 11.3455C5.53727 11.4581 5.38791 11.5226 5.23077 11.5226V11.1226C5.27765 11.1226 5.32394 11.1034 5.35909 11.0671L5.64638 11.3455ZM5.23077 11.5226C5.07364 11.5226 4.92427 11.4581 4.81516 11.3455L5.10246 11.0671C5.1376 11.1034 5.18389 11.1226 5.23077 11.1226V11.5226ZM4.81516 11.3455C4.70625 11.233 4.64616 11.0819 4.64616 10.9256H5.04616C5.04616 10.9798 5.0671 11.0306 5.10246 11.0671L4.81516 11.3455ZM4.64616 10.9256C4.64616 10.5923 4.38502 10.3315 4.07693 10.3315V9.93152C4.61806 9.93152 5.04616 10.3838 5.04616 10.9256H4.64616ZM4.07693 10.3315C3.91979 10.3315 3.77043 10.267 3.66131 10.1544L3.94861 9.87608C3.98376 9.91236 4.03005 9.93152 4.07693 9.93152V10.3315ZM3.66131 10.1544C3.55241 10.042 3.49231 9.89083 3.49231 9.7345H3.89231C3.89231 9.78876 3.91325 9.83958 3.94861 9.87608L3.66131 10.1544ZM3.49231 9.7345C3.49231 9.57817 3.55241 9.42702 3.66131 9.3146L3.94861 9.59292C3.91325 9.62942 3.89231 9.68023 3.89231 9.7345H3.49231ZM3.66131 9.3146C3.77043 9.20197 3.91979 9.13748 4.07693 9.13748V9.53747C4.03005 9.53747 3.98376 9.55664 3.94861 9.59292L3.66131 9.3146ZM5.07833 9.74717C5.12681 9.69009 5.17889 9.63631 5.23427 9.5862L5.50266 9.88279C5.46031 9.92111 5.42041 9.9623 5.38321 10.0061L5.07833 9.74717ZM5.23427 9.88279C5.17889 9.83268 5.1268 9.77891 5.07833 9.72183L5.38321 9.4629C5.42041 9.50669 5.46031 9.54788 5.50266 9.5862L5.23427 9.88279ZM5.38334 9.72168C5.33455 9.77924 5.28298 9.83248 5.22714 9.88292L4.95902 9.58608C5.00164 9.54758 5.04084 9.50712 5.07821 9.46304L5.38334 9.72168ZM5.22728 9.5862C5.28265 9.63631 5.33474 9.69009 5.38321 9.74717L5.07833 10.0061C5.04113 9.9623 5.00123 9.92111 4.95888 9.88279L5.22728 9.5862ZM2.53846 0.8H19.4615V1.2H2.53846V0.8ZM19.4615 0.8C20.4264 0.8 21.2 1.60783 21.2 2.58809H20.8C20.8 1.81668 20.1936 1.2 19.4615 1.2V0.8ZM21.2 2.58809V20.0571H20.8V2.58809H21.2ZM21.2 20.0571C21.2 21.0373 20.4264 21.8452 19.4615 21.8452V21.4452C20.1936 21.4452 20.8 20.8285 20.8 20.0571H21.2ZM19.4615 21.8452H2.53846V21.4452H19.4615V21.8452ZM2.53846 21.8452C1.5736 21.8452 0.799999 21.0373 0.799999 20.0571H1.2C1.2 20.8285 1.80639 21.4452 2.53846 21.4452V21.8452ZM0.799999 20.0571V2.58809H1.2V20.0571H0.799999ZM0.799999 2.58809C0.799999 1.60783 1.5736 0.8 2.53846 0.8V1.2C1.80639 1.2 1.2 1.81668 1.2 2.58809H0.799999ZM19.4615 1.99404H2.53846V1.59404H19.4615V1.99404ZM2.53846 1.99404C2.23037 1.99404 1.96923 2.25486 1.96923 2.58809H1.56923C1.56923 2.04628 1.99732 1.59404 2.53846 1.59404V1.99404ZM1.96923 2.58809V4.17618H1.56923V2.58809H1.96923ZM1.76923 3.97618H20.2308V4.37618H1.76923V3.97618ZM20.0308 4.17618V2.58809H20.4308V4.17618H20.0308ZM20.0308 2.58809C20.0308 2.25486 19.7696 1.99404 19.4615 1.99404V1.59404C20.0027 1.59404 20.4308 2.04628 20.4308 2.58809H20.0308ZM2.53846 20.6511H19.4615V21.0511H2.53846V20.6511ZM19.4615 20.6511C19.7696 20.6511 20.0308 20.3903 20.0308 20.0571H20.4308C20.4308 20.5989 20.0027 21.0511 19.4615 21.0511V20.6511ZM20.0308 20.0571V4.97022H20.4308V20.0571H20.0308ZM20.2308 5.17022H1.76923V4.77022H20.2308V5.17022ZM1.96923 4.97022V20.0571H1.56923V4.97022H1.96923ZM1.96923 20.0571C1.96923 20.3903 2.23037 20.6511 2.53846 20.6511V21.0511C1.99732 21.0511 1.56923 20.5989 1.56923 20.0571H1.96923ZM15.8154 2.98511C15.8154 3.09996 15.904 3.18213 16 3.18213V3.58213C15.6712 3.58213 15.4154 3.3088 15.4154 2.98511H15.8154ZM16 3.18213C16.096 3.18213 16.1846 3.09996 16.1846 2.98511H16.5846C16.5846 3.3088 16.3288 3.58213 16 3.58213V3.18213ZM16.1846 2.98511C16.1846 2.87026 16.096 2.78809 16 2.78809V2.38809C16.3288 2.38809 16.5846 2.66142 16.5846 2.98511H16.1846ZM16 2.78809C15.904 2.78809 15.8154 2.87026 15.8154 2.98511H15.4154C15.4154 2.66142 15.6712 2.38809 16 2.38809V2.78809ZM17.3538 2.98511C17.3538 3.09996 17.4424 3.18213 17.5385 3.18213V3.58213C17.2097 3.58213 16.9538 3.3088 16.9538 2.98511H17.3538ZM17.5385 3.18213C17.6345 3.18213 17.7231 3.09996 17.7231 2.98511H18.1231C18.1231 3.3088 17.8673 3.58213 17.5385 3.58213V3.18213ZM17.7231 2.98511C17.7231 2.87026 17.6345 2.78809 17.5385 2.78809V2.38809C17.8673 2.38809 18.1231 2.66142 18.1231 2.98511H17.7231ZM17.5385 2.78809C17.4424 2.78809 17.3538 2.87026 17.3538 2.98511H16.9538C16.9538 2.66142 17.2097 2.38809 17.5385 2.38809V2.78809ZM18.8923 2.98511C18.8923 3.09996 18.9809 3.18213 19.0769 3.18213V3.58213C18.7481 3.58213 18.4923 3.3088 18.4923 2.98511H18.8923ZM19.0769 3.18213C19.1729 3.18213 19.2615 3.09996 19.2615 2.98511H19.6615C19.6615 3.3088 19.4057 3.58213 19.0769 3.58213V3.18213ZM19.2615 2.98511C19.2615 2.87026 19.1729 2.78809 19.0769 2.78809V2.38809C19.4057 2.38809 19.6615 2.66142 19.6615 2.98511H19.2615ZM19.0769 2.78809C18.9809 2.78809 18.8923 2.87026 18.8923 2.98511H18.4923C18.4923 2.66142 18.7481 2.38809 19.0769 2.38809V2.78809ZM12.4811 11.3285C12.5312 11.2692 12.5925 11.2202 12.6617 11.1849L12.8437 11.5411C12.8224 11.552 12.8029 11.5674 12.7866 11.5866L12.4811 11.3285ZM12.6617 11.1849C12.731 11.1495 12.8066 11.1285 12.8842 11.1233L12.9111 11.5224C12.8879 11.524 12.865 11.5302 12.8437 11.5411L12.6617 11.1849ZM12.8842 11.1233C12.9618 11.1181 13.0396 11.1288 13.1129 11.1546L12.9799 11.5319C12.9576 11.524 12.9343 11.5208 12.9111 11.5224L12.8842 11.1233ZM13.1129 11.1546C13.1862 11.1805 13.2535 11.2209 13.3109 11.2732L13.0414 11.5688C13.0231 11.5522 13.0022 11.5397 12.9799 11.5319L13.1129 11.1546ZM13.3102 11.2726L16.3871 14.0518L16.119 14.3486L13.0421 11.5695L13.3102 11.2726ZM16.3876 14.0522C16.4498 14.1087 16.4991 14.1778 16.5328 14.2547L16.1664 14.4151C16.155 14.3891 16.1385 14.3664 16.1186 14.3482L16.3876 14.0522ZM16.5328 14.2547C16.5665 14.3316 16.5838 14.4148 16.5838 14.4988H16.1838C16.1838 14.4697 16.1778 14.4412 16.1664 14.4151L16.5328 14.2547ZM16.5838 14.4988C16.5838 14.5827 16.5665 14.6659 16.5328 14.7428L16.1664 14.5824C16.1778 14.5563 16.1838 14.5278 16.1838 14.4988H16.5838ZM16.5328 14.7428C16.4991 14.8197 16.4498 14.8888 16.3876 14.9453L16.1186 14.6493C16.1385 14.6312 16.155 14.6084 16.1664 14.5824L16.5328 14.7428ZM16.3871 14.9457L13.3102 17.7249L13.0421 17.4281L16.119 14.6489L16.3871 14.9457ZM13.311 17.7242C13.2535 17.7766 13.1862 17.8171 13.1128 17.843L12.9799 17.4657C13.0021 17.4579 13.0231 17.4454 13.0413 17.4288L13.311 17.7242ZM13.1128 17.843C13.0393 17.8689 12.9614 17.8795 12.8837 17.8741L12.9112 17.4751C12.9343 17.4767 12.9577 17.4735 12.9799 17.4657L13.1128 17.843ZM12.8837 17.8741C12.806 17.8688 12.7303 17.8476 12.6611 17.812L12.8439 17.4563C12.8652 17.4672 12.888 17.4735 12.9112 17.4751L12.8837 17.8741ZM12.6611 17.812C12.5919 17.7764 12.5306 17.7273 12.4806 17.6677L12.7871 17.4106C12.8033 17.4299 12.8227 17.4453 12.8439 17.4563L12.6611 17.812ZM12.4812 17.6684C12.3802 17.549 12.3301 17.3945 12.3401 17.2386L12.7393 17.2644C12.7358 17.3185 12.7534 17.3708 12.7865 17.4099L12.4812 17.6684ZM12.3401 17.2386C12.3502 17.0828 12.4198 16.936 12.5358 16.831L12.8042 17.1277C12.7669 17.1614 12.7428 17.2104 12.7393 17.2644L12.3401 17.2386ZM12.5359 16.831L15.2813 14.3504L15.5495 14.6472L12.8041 17.1278L12.5359 16.831ZM15.2813 14.6472L12.5352 12.1666L12.8033 11.8697L15.5494 14.3503L15.2813 14.6472ZM12.5351 12.1665C12.4191 12.0616 12.3494 11.9147 12.3394 11.7589L12.7385 11.7331C12.742 11.7871 12.7661 11.8361 12.8034 11.8698L12.5351 12.1665ZM12.3394 11.7589C12.3293 11.603 12.3794 11.4485 12.4804 11.3292L12.7857 11.5876C12.7526 11.6267 12.7351 11.679 12.7385 11.7331L12.3394 11.7589ZM12.4894 11.3192L12.4902 11.3184L12.7775 11.5967L12.7767 11.5975L12.4894 11.3192ZM10.104 10.3429C10.2569 10.3087 10.4163 10.3384 10.547 10.4245L10.3271 10.7586C10.2861 10.7316 10.2375 10.7229 10.1914 10.7332L10.104 10.3429ZM10.547 10.4245C10.6775 10.5103 10.7682 10.6447 10.8015 10.797L10.4108 10.8826C10.3992 10.8298 10.3684 10.7857 10.3271 10.7586L10.547 10.4245ZM10.8017 10.7977L12.3401 17.9441L11.9491 18.0283L10.4106 10.8819L10.8017 10.7977ZM12.3412 17.9496C12.3694 18.1004 12.3395 18.2571 12.257 18.3867L11.9196 18.1719C11.9472 18.1286 11.9577 18.075 11.948 18.0229L12.3412 17.9496ZM12.257 18.3867C12.1744 18.5164 12.0449 18.6095 11.8946 18.6438L11.8055 18.2539C11.8508 18.2435 11.8922 18.2149 11.9196 18.1719L12.257 18.3867ZM11.8946 18.6438C11.7441 18.6782 11.587 18.6504 11.4571 18.5675L11.6723 18.2303C11.7127 18.2561 11.7603 18.2642 11.8055 18.2539L11.8946 18.6438ZM11.4571 18.5675C11.3274 18.4847 11.2357 18.3542 11.1995 18.2049L11.5882 18.1105C11.6007 18.1619 11.6316 18.2044 11.6723 18.2303L11.4571 18.5675ZM11.1983 18.1998L9.65986 11.0534L10.0509 10.9692L11.5894 18.1156L11.1983 18.1998ZM9.65981 11.0532C9.62712 10.9004 9.65434 10.7401 9.73648 10.6071L10.0768 10.8173C10.0493 10.8618 10.0397 10.9167 10.051 10.9695L9.65981 11.0532ZM9.73648 10.6071C9.81875 10.4739 9.9501 10.3781 10.1031 10.3431L10.1923 10.733C10.1462 10.7436 10.1042 10.773 10.0768 10.8173L9.73648 10.6071ZM8.68835 11.2732C8.74588 11.2208 8.81325 11.1803 8.88671 11.1544L9.0198 11.5316C8.99736 11.5395 8.97624 11.552 8.95781 11.5688L8.68835 11.2732ZM8.88671 11.1544C8.96018 11.1284 9.03807 11.1177 9.11583 11.1229L9.08917 11.522C9.06579 11.5204 9.04224 11.5236 9.0198 11.5316L8.88671 11.1544ZM9.11583 11.1229C9.19359 11.1281 9.26935 11.1491 9.33875 11.1845L9.15712 11.5408C9.13564 11.5299 9.11255 11.5236 9.08917 11.522L9.11583 11.1229ZM9.33875 11.1845C9.40814 11.2198 9.46964 11.2688 9.51993 11.3282L9.21463 11.5866C9.19823 11.5672 9.17861 11.5518 9.15712 11.5408L9.33875 11.1845ZM9.51993 11.3282C9.57021 11.3876 9.60834 11.4563 9.63242 11.5303L9.25206 11.6541C9.24386 11.6289 9.23104 11.606 9.21463 11.5866L9.51993 11.3282ZM9.63242 11.5303C9.6565 11.6042 9.66614 11.6822 9.66088 11.7599L9.26179 11.7328C9.26361 11.7061 9.26027 11.6793 9.25206 11.6541L9.63242 11.5303ZM9.66088 11.7599C9.65562 11.8375 9.63555 11.9135 9.60162 11.9835L9.24166 11.809C9.25307 11.7855 9.25998 11.7596 9.26179 11.7328L9.66088 11.7599ZM9.60162 11.9835C9.56769 12.0535 9.52048 12.1163 9.46241 12.1682L9.19605 11.8697C9.21465 11.8531 9.23025 11.8326 9.24166 11.809L9.60162 11.9835ZM9.46333 12.1673L6.71949 14.6471L6.45128 14.3504L9.19513 11.8706L9.46333 12.1673ZM6.71945 14.3503L9.4656 16.8309L9.19748 17.1278L6.45132 14.6472L6.71945 14.3503ZM9.46582 16.8311C9.52333 16.8832 9.56998 16.9462 9.6034 17.0162L9.2424 17.1885C9.23115 17.1649 9.21571 17.1443 9.19726 17.1276L9.46582 16.8311ZM9.6034 17.0162C9.63681 17.0862 9.65642 17.1621 9.66131 17.2395L9.2621 17.2647C9.26042 17.238 9.25366 17.2121 9.2424 17.1885L9.6034 17.0162ZM9.66131 17.2395C9.66619 17.3169 9.65628 17.3946 9.63202 17.4683L9.25208 17.3432C9.26035 17.3181 9.26379 17.2914 9.2621 17.2647L9.66131 17.2395ZM9.63202 17.4683C9.60776 17.542 9.56955 17.6104 9.51929 17.6695L9.21455 17.4104C9.23097 17.3911 9.24382 17.3683 9.25208 17.3432L9.63202 17.4683ZM9.51929 17.6695C9.46903 17.7286 9.40764 17.7773 9.33843 17.8125L9.1571 17.456C9.17856 17.4451 9.19815 17.4297 9.21455 17.4104L9.51929 17.6695ZM9.33843 17.8125C9.2692 17.8477 9.19366 17.8687 9.11614 17.8739L9.08929 17.4748C9.11263 17.4732 9.13566 17.4669 9.1571 17.456L9.33843 17.8125ZM9.11614 17.8739C9.03861 17.8791 8.96094 17.8685 8.88764 17.8427L9.02006 17.4653C9.04246 17.4732 9.06596 17.4763 9.08929 17.4748L9.11614 17.8739ZM8.88764 17.8427C8.81435 17.817 8.74709 17.7768 8.68956 17.7247L8.95813 17.4283C8.97657 17.445 8.99766 17.4574 9.02006 17.4653L8.88764 17.8427ZM8.68979 17.7249L5.61287 14.9457L5.88098 14.6489L8.9579 17.4281L8.68979 17.7249ZM5.61206 14.945C5.55012 14.8884 5.50094 14.8193 5.4674 14.7425L5.834 14.5825C5.84539 14.6086 5.8618 14.6314 5.88178 14.6496L5.61206 14.945ZM5.4674 14.7425C5.43386 14.6657 5.41662 14.5826 5.41662 14.4988H5.81662C5.81662 14.5278 5.82261 14.5564 5.834 14.5825L5.4674 14.7425ZM5.41662 14.4988C5.41662 14.4149 5.43386 14.3319 5.4674 14.255L5.834 14.415C5.82261 14.4411 5.81662 14.4697 5.81662 14.4988H5.41662ZM5.4674 14.255C5.50094 14.1782 5.55012 14.1091 5.61206 14.0525L5.88178 14.3479C5.8618 14.3661 5.84539 14.3889 5.834 14.415L5.4674 14.255ZM5.61285 14.0518L8.689 11.2726L8.95715 11.5694L5.881 14.3486L5.61285 14.0518Z" fill="black" mask="url(#path-1-outside-1_7_141)"/>
</svg>
